<svg width="1920" height="749" viewBox="0 0 1920 749" fill="none" xmlns="http://www.w3.org/2000/svg">
<path d="M-176.497 -159.812C-148.378 -134.96 -116.765 -105.99 -131.479 -61.735C-153.505 4.51266 -215.599 43.412 -227.688 116.948C-236.591 171.104 -220.927 229.307 -160.704 229.518C-84.5465 229.785 -11.0361 163.887 39.1556 108.609C77.3641 66.5292 100.489 20.0242 120.116 -33.9398C133.493 -70.7187 147.704 -109.511 179.657 -131.818C206.374 -150.47 252.284 -147.9 251.541 -103.229C250.982 -69.6243 231.507 -36.3218 216.688 -8.52719C184.065 52.6594 146.248 110.339 109.769 168.766C12.0688 325.247 -75.6195 488.214 -89.9094 681.387C-92.9918 723.056 -91.6297 765.266 -80.2885 805.472C-73.315 830.194 -58.1693 870.206 -33.8178 880.916C-3.57291 894.218 36.1554 866.096 58.942 850.937C142.225 795.533 216.221 722.104 277.318 639.099C435.563 424.11 521.069 154.773 625.485 -93.1037C664.279 -185.2 704.581 -276.573 750.193 -364.9C757.442 -378.938 783.22 -441.448 805.195 -449.278C821.415 -455.057 846.193 -424.525 853.118 -415.328C897.477 -356.417 908.144 -274.465 906.487 -200.512C904.15 -96.2464 875.62 1.02737 840.411 97.0942C791.702 229.996 731.898 357.629 683.573 490.792C636.032 621.791 593.234 756.662 569.574 895.608C562.373 937.898 555.127 1007.05 559.046 1053.25C560.376 1068.93 565.215 1097.8 579.377 1094.94C588.52 1093.09 595.422 1084.51 602.612 1078.06C629.828 1053.66 685.699 991.727 704.63 970.654C797.984 866.738 888.015 758.548 959.855 635.128C1038.43 500.138 1091.11 354.892 1132.31 202.12C1166.27 76.1328 1188.28 -53.8402 1232.69 -176.29C1237.19 -188.714 1241.65 -201.224 1247.39 -213.02C1250.15 -218.676 1259.23 -234.902 1261.91 -216.196C1271.21 -151.356 1253.01 -71.1503 1241.58 -9.7184C1215.09 132.665 1178.85 272.728 1146.46 413.561C1119.46 530.999 1085.64 652.51 1076.58 773.905C1073.75 811.699 1070.42 889.973 1124.32 894.416C1178.92 898.917 1236.81 840.423 1264.27 796.935C1316.39 714.416 1332.86 598.982 1270.63 513.624C1208.65 428.611 1087.38 376.437 1001.97 340.5C867.102 283.75 725.902 246.247 590.995 189.612C538.163 167.433 485.293 144.357 435.79 114.367C398.025 91.4882 316.067 45.5361 330.686 -25.0057C335.301 -47.2718 351.953 -66.7437 369.896 -78.412C423.999 -113.596 543.977 -126.678 598.256 -130.031C947.374 -151.601 1295.37 -71.4467 1642.03 -41.0872C1746.26 -31.9592 1850.76 -30.0065 1954.98 -21.6306C1967.45 -20.6286 2024.02 -20.8759 2031.22 4.9733C2041.88 43.2459 1972.16 105.89 1959.34 119.132C1827.26 255.557 1678.77 371.579 1556.35 519.381C1487.51 602.489 1386.94 739.417 1423.47 862.452C1457.22 976.109 1587.39 929.188 1637.31 856.297C1681.17 792.264 1687.77 706.964 1688.86 629.966C1690.45 517.944 1677.47 404.617 1653.65 295.829C1628.2 179.652 1585.76 69.981 1555.99 -44.6608C1532.69 -134.36 1508.13 -244.486 1536.74 -336.906C1542.51 -355.514 1561.18 -391.63 1583.03 -369.069C1613.14 -337.996 1622.86 -270.109 1630.05 -229.697C1647.62 -130.895 1652.13 -29.8805 1660.73 70.0932C1671.31 193.163 1677.77 329.445 1732.25 440.959C1750.01 477.314 1776.22 510.826 1817.02 512.432C1864.91 514.317 1915.45 485.636 1956.43 462.997C2022.96 426.248 2086.19 382.334 2149.94 340.5" stroke="#EFFCFF" stroke-opacity="0.2" stroke-width="3" stroke-linecap="round"/>
</svg>
