<svg width="1920" height="1731" viewBox="0 0 1920 1731" fill="none" xmlns="http://www.w3.org/2000/svg">
<path d="M42.4558 -32.292C-14.5514 5.40664 -63.6722 33.6211 -127.225 43.4023C-196.274 54.0293 -259.958 56.3047 -282.97 160.687C-302.554 249.514 -283.926 353.135 -317.293 436.578C-328.362 464.259 -345.852 486.593 -357.765 513.638C-379.611 563.235 -389.847 617.191 -394.868 673.996C-401.423 748.166 -400.856 831.455 -353.03 882.575C-327.975 909.356 -310.928 920.149 -282.668 883.726C-261.582 856.548 -245.826 822.496 -230.959 788.76C-193.497 703.753 -129.287 512.22 -95.6838 428.08C-59.2251 336.789 -27.3651 258.902 29.4055 188.948C56.7929 155.2 123.132 103.689 156.984 82.2121C240.152 29.4479 311.927 22.9777 400.556 46.8293C471.366 65.8855 539.342 77.0278 611.527 65.1609C666.295 56.1573 705.081 28.9182 754.156 0.258134C814.663 -35.0779 889.26 -50.7512 953.062 -20.0337C1045.05 24.2551 955.814 124.077 912.54 162.904C843.676 224.691 766.844 247.877 686.183 265.649C569.611 291.333 451.65 307.004 335.48 335.762C264.919 353.229 185.295 376.568 130.307 442.868C100.493 478.815 93.0573 503.745 77.7399 552.717C54.4152 627.288 38.0672 702.877 -3.85621 764.366C-84.8552 883.166 -240.326 867.515 -269.444 1048.31C-282.558 1129.73 -278.302 1214.58 -290.534 1296.36C-296.641 1337.19 -303.013 1359.3 -314.185 1397.15C-322.649 1425.82 -341.115 1463.14 -331.905 1495.92C-309.138 1576.94 -218.477 1550.88 -176.576 1524.43C-135.914 1498.77 -110.597 1469.22 -85.7406 1420.35C-62.7989 1375.25 -58.7274 1322.4 -42.2597 1273.85C36.4419 1041.84 269.818 1015.56 429.38 950.245C540.232 904.872 634.486 844.872 722.809 743.038C793.463 661.576 909.472 510.733 971.175 429.177C1070.09 298.433 1164.22 170.109 1246 19.9741C1271.32 -26.5055 1281.94 -55.4052 1319.37 -86.998C1350.44 -113.219 1396.68 -130.815 1432.37 -138.617C1494.76 -152.26 1576.39 -148.894 1631.92 -101.634C1674.04 -65.7781 1679.48 -0.857528 1659.78 57.4204C1640.98 113.03 1612.57 150.241 1582.85 196.148C1519.26 294.367 1464.88 394.899 1408.69 500.728C1360.5 591.497 1327.48 653.663 1264.61 728.545C1205.9 798.483 1141.75 849.381 1075.36 904.507C983.875 980.473 998.831 962.95 914.888 1042.15C855.656 1098.03 800.166 1160.77 735.792 1206.41C669.681 1253.28 596.476 1271.36 528.379 1311.04C473.266 1343.16 442.939 1388.08 416.03 1458.12C393.238 1517.45 365.98 1560.59 334.341 1611.5C321.906 1631.51 304.154 1656.41 305.367 1686.03C308.238 1756.19 395.456 1754.03 426.716 1751.65C559.568 1741.56 688.017 1672.71 801.27 1583.73C850.729 1544.87 886.832 1506.36 938.106 1471.99C1005.13 1427.07 1073.33 1410.46 1146.58 1395.12C1234.77 1376.65 1318.6 1356.98 1388.83 1277.67C1422.58 1239.56 1443.65 1201.39 1471.97 1156.27C1523.23 1074.61 1579.25 998.761 1630.85 917.72C1679.97 840.587 1715.29 778.666 1746.32 684.584C1774.65 598.65 1790.24 503.132 1802.18 411.069C1812.82 329.139 1810.77 240.737 1826.6 160.02C1836.06 111.798 1876.33 -13.2669 1908.34 -34.3168C1963.95 -70.8808 1962.9 -77.2799 2004.19 -81.7236C2054.18 -87.1039 2108.52 -50.0862 2126.56 -40.5231C2152.89 -26.5655 2162.89 14.0398 2167.07 47.0598C2186.69 201.901 2098.82 332.736 2079.11 479.669C2065.81 578.812 2071.58 680.814 2053.81 779.321C2025.74 934.908 1953.76 1028.86 1859.59 1120.2C1829.82 1149.08 1792.15 1181.8 1763.14 1213.89C1728.41 1252.31 1743.06 1249.46 1696.64 1283.14C1549.41 1389.97 1384.74 1446.59 1235.68 1548.43C1200.17 1572.68 1146.89 1615.31 1171.52 1680.15C1207.24 1774.2 1322.1 1740.67 1374.32 1698.03C1413.86 1665.74 1426.02 1631.97 1462.56 1594.45C1506.27 1549.58 1542.88 1526.55 1596.91 1507.03C1732.61 1470.85 1673.22 1490.43 1758.29 1479.97C1885.31 1440.23 1941.73 1225.16 1989.21 1090.57C2072.32 854.971 2138.58 614.247 2183.06 360.896C2189.05 326.743 2203.15 239.924 2213.66 200.818C2225.71 155.98 2242.06 144.495 2277.65 149.433C2327.87 156.402 2380.68 184.509 2391.78 257.988C2397.51 295.939 2392.16 355.252 2387.58 390.913C2374.7 491.369 2348.97 587.213 2343.72 689.662C2334.48 869.81 2385.18 1050.4 2364.86 1229.36C2354.23 1323.05 2336.05 1362.12 2282.61 1420.43C2230.88 1476.88 2163.34 1498.29 2113.22 1557.62C2075.32 1602.49 2061.63 1667.8 2062.09 1733.42C2062.15 1742.68 2064.29 1790.46 2072.8 1800.81C2094.96 1827.74 2162.39 1772.39 2177.69 1762.87C2204.17 1746.4 2232.19 1730.7 2254.64 1704.73C2273.11 1683.35 2296.31 1638.13 2310.46 1614.7C2344 1559.15 2377.62 1508.45 2422.07 1469.36" stroke="#EFFBFF" stroke-opacity="0.3" stroke-width="3" stroke-linecap="round"/>
</svg>
