<svg width="293" height="73" viewBox="0 0 293 73" fill="none" xmlns="http://www.w3.org/2000/svg">
<path d="M51.175 71.2422C48.4229 71.2192 45.9043 70.492 43.7379 68.7734C40.871 66.4997 39.7763 63.5218 40.205 59.8856C40.626 56.3029 40.8939 52.7011 41.2308 49.107C41.5944 45.2372 41.9657 41.3713 42.3293 37.5016C42.624 34.3706 42.9034 31.2434 43.1982 28.1124C43.5273 24.5872 43.868 21.0619 44.1972 17.5405C44.4881 14.4286 44.7752 11.3168 45.0622 8.20489C45.1311 7.48147 45.1235 6.74273 45.2919 6.0461C45.4259 5.49493 45.6976 4.93609 46.0536 4.49591C47.045 3.26724 48.4038 2.52851 49.8506 1.9735C52.0936 1.11229 54.3978 0.649142 56.7901 1.20798C57.3298 1.33429 57.8925 1.57926 58.3058 1.93523C58.6542 2.22996 58.968 2.74669 59.0063 3.19069C59.2742 6.07673 59.458 8.97042 59.6761 11.8641C59.8981 14.8076 60.1355 17.7472 60.3575 20.6906C60.5833 23.6341 60.7976 26.5775 61.0235 29.521C61.322 33.4099 61.6282 37.2987 61.9268 41.1914C62.1526 44.154 62.3631 47.1166 62.589 50.0792C62.8454 53.4705 63.1478 56.8579 63.366 60.2531C63.4846 62.1286 62.9794 63.8893 61.9804 65.4778C59.9249 68.7466 56.8781 70.4881 53.1309 71.0929C52.4878 71.1848 51.8257 71.1886 51.175 71.2422Z" fill="url(#paint0_linear_6_1792)"/>
<path d="M18.8468 71.2306C16.7684 71.246 14.9005 70.6756 13.4307 69.1676C11.6814 67.3762 11.1877 65.16 11.7235 62.7869C12.225 60.5707 12.9484 58.4004 13.5876 56.2148C14.2421 53.9795 14.9694 51.7633 15.5665 49.5127C16.3779 46.4506 18.2688 44.2688 20.9252 42.6956C23.1682 41.3675 25.5796 40.7244 28.213 41.088C31.0225 41.4746 33.7477 43.6066 33.0167 47.752C32.232 52.1882 31.5736 56.6474 30.8464 61.0913C30.4139 63.717 29.0895 65.8681 27.1719 67.6633C24.8332 69.8604 22.0964 71.1541 18.8468 71.2306Z" fill="url(#paint1_linear_6_1792)"/>
<path d="M32.3698 19.8178C33.3382 19.8063 34.2683 19.9365 35.1486 20.3537C36.5151 21.0006 37.1007 22.0455 36.8749 23.5383C36.4271 26.4549 35.9639 29.3716 35.4816 32.2844C35.275 33.5514 34.6396 34.6269 33.7707 35.5417C31.2024 38.2364 28.0637 39.6258 24.3203 39.4191C23.5012 39.3732 22.6514 39.1014 21.905 38.7416C20.263 37.9493 19.5434 36.3264 20.041 34.5734C20.8869 31.5687 21.7443 28.5601 22.728 25.5976C23.0151 24.7363 23.6275 23.9057 24.282 23.255C26.502 21.0427 29.2464 19.9556 32.3698 19.8178Z" fill="url(#paint2_linear_6_1792)"/>
<path d="M3.81568 41.9073C3.30277 41.8384 2.77839 41.8193 2.28462 41.693C0.543051 41.2413 -0.310515 39.8174 0.102869 38.0491C0.206215 37.6012 0.378463 37.1572 0.573672 36.7362C1.67603 34.3363 2.83963 31.9631 3.8884 29.5402C4.69603 27.6762 5.95532 26.2485 7.62417 25.1499C9.33512 24.0208 11.1839 23.2399 13.2623 23.1443C13.8058 23.1175 14.3761 23.1557 14.9005 23.2897C16.6191 23.7299 17.2928 25.0198 16.711 26.7001C16.0258 28.6905 15.3139 30.6732 14.6134 32.6598C14.4641 33.0846 14.2881 33.498 14.1694 33.9305C13.2278 37.3256 10.8662 39.4308 7.81555 40.8853C6.56009 41.4863 5.2319 41.8499 3.81568 41.9073Z" fill="url(#paint3_linear_6_1792)"/>
<path d="M28.8522 19.0831C28.3967 18.9759 27.5853 18.8725 26.8427 18.5855C25.6446 18.1223 25.2083 17.1271 25.5643 15.8985C26.1384 13.9119 26.7202 11.9216 27.3326 9.94649C27.7192 8.71017 28.6646 7.90637 29.6866 7.20974C31.5813 5.92365 33.6788 5.15429 35.9754 5.08157C36.7639 5.0586 37.5945 5.21554 38.3486 5.46433C39.2787 5.77054 39.6078 6.44421 39.4586 7.42408C39.1524 9.45273 38.8385 11.4814 38.4863 13.5062C38.3141 14.5014 37.694 15.2669 36.9668 15.9214C34.7697 17.9118 32.1554 18.8993 28.8522 19.0831Z" fill="url(#paint4_linear_6_1792)"/>
<path d="M85.095 36.4288C84.9036 36.4288 84.739 36.3637 84.5974 36.2336C84.4558 36.1035 84.3831 35.9389 84.3831 35.736V23.2197C84.3831 23.0168 84.4558 22.8522 84.5974 22.7221C84.739 22.5919 84.9036 22.5269 85.095 22.5269C85.2979 22.5269 85.4586 22.5919 85.5849 22.7221C85.7112 22.8522 85.7725 23.0206 85.7725 23.2197V34.1514L94.6564 22.7756C94.7866 22.6111 94.9626 22.5269 95.1885 22.5269C95.3913 22.5269 95.5559 22.5919 95.6861 22.7221C95.8162 22.8522 95.8813 23.0206 95.8813 23.2197V35.736C95.8813 35.9389 95.8162 36.1035 95.6861 36.2336C95.5559 36.3637 95.3913 36.4288 95.1885 36.4288C94.9856 36.4288 94.821 36.3637 94.6909 36.2336C94.5607 36.1035 94.4957 35.9389 94.4957 35.736V24.8196L85.6117 36.1953C85.5543 36.2681 85.4739 36.3216 85.3821 36.3637C85.2864 36.4059 85.1907 36.4288 85.095 36.4288Z" fill="white"/>
<path d="M100.922 23.7862C100.731 23.7862 100.578 23.725 100.459 23.6063C100.34 23.4877 100.279 23.3384 100.279 23.1623C100.279 22.9709 100.337 22.8178 100.459 22.6992C100.578 22.5805 100.731 22.5193 100.922 22.5193H110.767C110.958 22.5193 111.111 22.5805 111.23 22.6992C111.349 22.8178 111.41 22.9709 111.41 23.1623C111.41 23.3422 111.349 23.4877 111.23 23.6063C111.111 23.725 110.958 23.7862 110.767 23.7862H100.922ZM105.837 36.4289C105.646 36.4289 105.485 36.36 105.347 36.2222C105.209 36.0844 105.14 35.9237 105.14 35.7323V22.5231H106.53V35.7323C106.53 35.9237 106.465 36.0844 106.335 36.2222C106.204 36.36 106.04 36.4289 105.837 36.4289Z" fill="white"/>
<path d="M122.61 36.4287C122.338 36.4287 122.139 36.3177 122.02 36.0919C121.902 35.8661 121.89 35.6479 121.986 35.4336L127.222 23.0052C127.352 22.6837 127.578 22.5229 127.899 22.5229C128.206 22.5229 128.428 22.6837 128.558 23.0052L133.809 35.4489C133.916 35.6747 133.901 35.8929 133.763 36.1072C133.626 36.3216 133.434 36.4287 133.185 36.4287C133.044 36.4287 132.917 36.3943 132.803 36.3216C132.692 36.2488 132.596 36.1417 132.527 36.0001L127.631 24.1229H128.183L123.253 36.0001C123.191 36.1417 123.107 36.2488 122.996 36.3216C122.881 36.3905 122.751 36.4287 122.61 36.4287ZM123.785 33.114L124.321 31.9198H131.547L132.083 33.114H123.785Z" fill="white"/>
<path d="M137.491 36.4287C137.22 36.4287 137.021 36.3177 136.894 36.0919C136.768 35.8661 136.76 35.6479 136.868 35.4336L142.104 23.0052C142.234 22.6837 142.452 22.5229 142.762 22.5229C143.084 22.5229 143.309 22.6837 143.44 23.0052L148.691 35.4489C148.798 35.6747 148.787 35.8929 148.657 36.1072C148.527 36.3216 148.331 36.4287 148.071 36.4287C147.929 36.4287 147.799 36.3943 147.688 36.3216C147.573 36.2488 147.489 36.1417 147.432 36.0001L142.517 24.1229H143.087L138.138 36.0001C138.077 36.1417 137.993 36.2488 137.882 36.3216C137.763 36.3905 137.637 36.4287 137.491 36.4287Z" fill="white"/>
<path d="M153.946 36.4289C153.721 36.4289 153.533 36.3677 153.384 36.2414C153.235 36.115 153.162 35.9466 153.162 35.7323V23.1432C153.162 22.9633 153.227 22.8178 153.357 22.6992C153.487 22.5805 153.652 22.5193 153.855 22.5193C154.057 22.5193 154.222 22.5805 154.352 22.6992C154.482 22.8178 154.547 22.9671 154.547 23.1432V28.0732H158.589C159.42 28.0732 160.159 28.2531 160.806 28.6091C161.452 28.965 161.962 29.455 162.329 30.0789C162.696 30.7028 162.88 31.4109 162.88 32.207C162.88 33.0376 162.696 33.7725 162.329 34.4079C161.962 35.0433 161.452 35.5371 160.806 35.893C160.159 36.249 159.42 36.4289 158.589 36.4289H153.946ZM154.551 35.162H158.593C159.164 35.162 159.669 35.0356 160.105 34.7792C160.545 34.5227 160.89 34.1706 161.139 33.7189C161.387 33.2673 161.514 32.7467 161.514 32.1534C161.514 31.5716 161.387 31.0664 161.139 30.6415C160.89 30.2128 160.545 29.8836 160.105 29.654C159.665 29.4205 159.164 29.3057 158.593 29.3057H154.551V35.162Z" fill="white"/>
<path d="M168.151 36.4288C167.829 36.4288 167.615 36.3216 167.5 36.1073C167.389 35.893 167.42 35.6442 167.6 35.3609L170.876 30.2319L172.266 30.607L168.759 36.0729C168.687 36.1915 168.606 36.2795 168.511 36.3408C168.415 36.3982 168.296 36.4288 168.151 36.4288ZM176.02 36.4288C175.818 36.4288 175.653 36.3637 175.523 36.2336C175.393 36.1035 175.328 35.9389 175.328 35.736V30.9821H171.73V30.8022C170.956 30.8022 170.245 30.63 169.594 30.2855C168.939 29.941 168.419 29.4702 168.028 28.8692C167.638 28.2683 167.439 27.5832 167.439 26.8138C167.439 25.9717 167.63 25.2292 168.017 24.59C168.403 23.9469 168.932 23.4455 169.609 23.078C170.287 22.7106 171.064 22.5269 171.94 22.5269H176.017C176.219 22.5269 176.384 22.5919 176.514 22.7221C176.644 22.8522 176.709 23.0206 176.709 23.2197V35.736C176.709 35.9389 176.644 36.1035 176.514 36.2336C176.388 36.3637 176.223 36.4288 176.02 36.4288ZM171.944 29.6807H175.328V23.8589H171.944C171.328 23.8589 170.784 23.9775 170.313 24.2148C169.846 24.4522 169.475 24.7928 169.211 25.2368C168.947 25.6808 168.809 26.209 168.809 26.8138C168.809 27.3956 168.943 27.9008 169.211 28.3257C169.479 28.7544 169.846 29.0874 170.313 29.3247C170.784 29.562 171.328 29.6807 171.944 29.6807Z" fill="white"/>
<path d="M183.32 36.4288C183.117 36.4288 182.952 36.3637 182.822 36.2336C182.692 36.1035 182.627 35.9389 182.627 35.736V23.2197C182.627 23.0168 182.692 22.8522 182.822 22.7221C182.952 22.5919 183.117 22.5269 183.32 22.5269C183.523 22.5269 183.687 22.5919 183.817 22.7221C183.947 22.8522 184.013 23.0206 184.013 23.2197V28.7736H192.701V23.2197C192.701 23.0168 192.766 22.8522 192.896 22.7221C193.027 22.5919 193.191 22.5269 193.394 22.5269C193.597 22.5269 193.762 22.5919 193.892 22.7221C194.022 22.8522 194.087 23.0206 194.087 23.2197V35.736C194.087 35.9389 194.022 36.1035 193.892 36.2336C193.762 36.3637 193.593 36.4288 193.394 36.4288C193.191 36.4288 193.027 36.3637 192.896 36.2336C192.766 36.1035 192.701 35.9389 192.701 35.736V30.0214H184.013V35.736C184.013 35.9389 183.947 36.1035 183.817 36.2336C183.687 36.3637 183.523 36.4288 183.32 36.4288Z" fill="white"/>
<path d="M206.251 36.6049C205.29 36.6049 204.391 36.4212 203.553 36.0538C202.714 35.6863 201.979 35.1734 201.344 34.515C200.709 33.8567 200.215 33.0988 199.859 32.2376C199.503 31.3764 199.323 30.4539 199.323 29.4702C199.323 28.498 199.499 27.5794 199.847 26.7182C200.196 25.8569 200.69 25.0991 201.325 24.4484C201.96 23.7938 202.695 23.2809 203.533 22.9097C204.368 22.5346 205.275 22.3508 206.247 22.3508C207.101 22.3508 207.878 22.4771 208.578 22.7259C209.279 22.9747 209.956 23.3728 210.607 23.9202C210.714 24.0044 210.775 24.1001 210.794 24.2149C210.814 24.3297 210.798 24.4331 210.749 24.5364C210.703 24.6359 210.63 24.7125 210.534 24.7584C210.511 24.8541 210.45 24.923 210.358 24.9728C210.262 25.0187 210.151 25.0378 210.029 25.0263C209.903 25.0149 209.78 24.9613 209.665 24.8656C209.202 24.4637 208.697 24.1613 208.153 23.9661C207.606 23.7709 206.971 23.6714 206.247 23.6714C205.474 23.6714 204.754 23.8245 204.085 24.1345C203.415 24.4445 202.822 24.8656 202.312 25.3976C201.803 25.9335 201.401 26.5497 201.111 27.2502C200.82 27.9507 200.674 28.6932 200.674 29.474C200.674 30.2817 200.82 31.0357 201.111 31.7362C201.401 32.4366 201.803 33.0529 202.312 33.5888C202.822 34.1246 203.415 34.5418 204.085 34.8442C204.754 35.1466 205.474 35.2997 206.247 35.2997C206.902 35.2997 207.518 35.1925 208.1 34.9782C208.682 34.7638 209.233 34.4576 209.757 34.0519C209.899 33.9333 210.052 33.8873 210.213 33.9103C210.373 33.9332 210.511 34.006 210.63 34.1246C210.749 34.2433 210.81 34.3964 210.81 34.5878C210.81 34.6835 210.794 34.7677 210.764 34.8442C210.733 34.9208 210.683 35.0012 210.611 35.0854C210.006 35.6442 209.328 36.0384 208.582 36.2681C207.836 36.4901 207.059 36.6049 206.251 36.6049Z" fill="white"/>
<path d="M97.7683 46.4182C97.7683 44.914 98.9166 43.8154 100.467 43.8154C101.251 43.8154 101.937 44.0834 102.4 44.6078L101.929 45.0671C101.535 44.6537 101.056 44.4623 100.497 44.4623C99.3491 44.4623 98.4994 45.2891 98.4994 46.4182C98.4994 47.5435 99.3491 48.3741 100.497 48.3741C101.056 48.3741 101.539 48.1789 101.929 47.7617L102.4 48.221C101.933 48.7454 101.251 49.021 100.459 49.021C98.9166 49.021 97.7683 47.9225 97.7683 46.4182Z" fill="white"/>
<path d="M102.771 47.0346C102.771 45.8863 103.621 45.071 104.777 45.071C105.933 45.071 106.775 45.8863 106.775 47.0346C106.775 48.1829 105.933 49.0059 104.777 49.0059C103.621 49.0059 102.771 48.1867 102.771 47.0346ZM106.07 47.0346C106.07 46.2117 105.519 45.6835 104.777 45.6835C104.034 45.6835 103.475 46.2155 103.475 47.0346C103.475 47.8576 104.034 48.3934 104.777 48.3934C105.519 48.3934 106.07 47.8576 106.07 47.0346Z" fill="white"/>
<path d="M113.152 47.0346C113.152 48.1829 112.321 49.0059 111.196 49.0059C110.17 49.0059 109.393 48.3207 109.263 47.3332H108.486V48.9638H107.789V45.1093H108.486V46.6863H109.27C109.416 45.7179 110.185 45.071 111.196 45.071C112.325 45.0749 113.152 45.8787 113.152 47.0346ZM112.463 47.0346C112.463 46.2117 111.911 45.6835 111.196 45.6835C110.476 45.6835 109.929 46.2155 109.929 47.0346C109.929 47.8652 110.476 48.3934 111.196 48.3934C111.911 48.3973 112.463 47.8652 112.463 47.0346Z" fill="white"/>
<path d="M117.006 47.8423C117.006 48.5389 116.237 49.0135 115.211 49.0135C114.637 49.0135 114.07 48.8528 113.641 48.5772L113.852 48.0451C114.223 48.2863 114.732 48.4164 115.203 48.4164C115.858 48.4164 116.286 48.1753 116.286 47.7848C116.286 47.4289 115.953 47.226 115.383 47.226H114.679V46.7246H115.333C115.85 46.7246 116.175 46.537 116.175 46.2079C116.175 45.8595 115.781 45.6567 115.195 45.6567C114.801 45.6567 114.403 45.76 113.982 45.9552L113.795 45.4155C114.296 45.1629 114.774 45.0596 115.272 45.0596C116.21 45.0596 116.903 45.4806 116.903 46.1083C116.903 46.4949 116.627 46.805 116.206 46.9581C116.715 47.0882 117.006 47.4021 117.006 47.8423Z" fill="white"/>
<path d="M123.333 45.1091V48.9636H122.636V45.7216H120.979L120.937 46.5789C120.872 47.9378 120.688 49.021 119.815 49.021C119.685 49.021 119.548 48.998 119.387 48.9559L119.429 48.3665C119.494 48.3818 119.551 48.3894 119.605 48.3894C120.229 48.3894 120.259 47.444 120.309 46.5368L120.374 45.113H123.333V45.1091Z" fill="white"/>
<path d="M130.051 47.0346C130.051 48.1829 129.22 49.0059 128.095 49.0059C127.069 49.0059 126.292 48.3207 126.162 47.3332H125.385V48.9638H124.688V45.1093H125.385V46.6863H126.169C126.315 45.7179 127.084 45.071 128.095 45.071C129.224 45.0749 130.051 45.8787 130.051 47.0346ZM129.362 47.0346C129.362 46.2117 128.81 45.6835 128.095 45.6835C127.375 45.6835 126.828 46.2155 126.828 47.0346C126.828 47.8652 127.375 48.3934 128.095 48.3934C128.807 48.3973 129.362 47.8652 129.362 47.0346Z" fill="white"/>
<path d="M134.946 48.3511V49.8554H134.292V48.9597H131.069V49.8554H130.407V48.3511H130.609C131.161 48.3205 131.256 47.3827 131.306 46.4105L131.363 45.1091H134.353V48.3511H134.946ZM131.497 48.3511H133.656V45.7177H131.984L131.949 46.4603C131.918 47.2603 131.846 48.0488 131.497 48.3511Z" fill="white"/>
<path d="M139.321 47.2681H136.194C136.282 47.9456 136.825 48.3973 137.591 48.3973C138.043 48.3973 138.418 48.2442 138.705 47.9303L139.091 48.3819C138.743 48.7877 138.211 49.0059 137.572 49.0059C136.328 49.0059 135.501 48.1829 135.501 47.0346C135.501 45.894 136.324 45.071 137.434 45.071C138.548 45.071 139.34 45.871 139.34 47.0576C139.336 47.115 139.329 47.203 139.321 47.2681ZM136.198 46.7667H138.67C138.598 46.1198 138.112 45.6605 137.434 45.6605C136.764 45.6605 136.27 46.1122 136.198 46.7667Z" fill="white"/>
<path d="M140.42 45.1092H141.116V47.9149L143.478 45.1092H144.109V48.9637H143.413V46.158L141.059 48.9637H140.42V45.1092ZM141.082 43.605H141.553C141.56 43.9686 141.821 44.2021 142.215 44.2021C142.613 44.2021 142.877 43.9686 142.885 43.605H143.371C143.355 44.2595 142.927 44.6078 142.222 44.6078C141.518 44.6078 141.089 44.2595 141.082 43.605Z" fill="white"/>
<path d="M147.424 45.1091H148.121V47.9148L150.482 45.1091H151.114V48.9636H150.417V46.1579L148.063 48.9636H147.424V45.1091Z" fill="white"/>
<path d="M157.296 45.7216H155.887V48.9636H155.19V45.7216H153.778V45.1091H157.296V45.7216Z" fill="white"/>
<path d="M161.311 47.2681H158.184C158.272 47.9456 158.815 48.3973 159.581 48.3973C160.032 48.3973 160.407 48.2442 160.695 47.9303L161.081 48.3819C160.733 48.7877 160.201 49.0059 159.562 49.0059C158.318 49.0059 157.491 48.1829 157.491 47.0346C157.491 45.894 158.314 45.071 159.424 45.071C160.538 45.071 161.33 45.871 161.33 47.0576C161.326 47.115 161.318 47.203 161.311 47.2681ZM158.184 46.7667H160.656C160.584 46.1198 160.097 45.6605 159.42 45.6605C158.75 45.6605 158.256 46.1122 158.184 46.7667Z" fill="white"/>
<path d="M164.706 48.9636L163.592 47.4861L162.463 48.9636H161.686L163.206 46.9923L161.759 45.1091H162.536L163.596 46.4986L164.649 45.1091H165.414L163.96 46.9923L165.494 48.9636H164.706Z" fill="white"/>
<path d="M166.233 45.1091H166.93V46.7474H169.127V45.1091H169.823V48.9636H169.127V47.3483H166.93V48.9636H166.233V45.1091Z" fill="white"/>
<path d="M170.83 47.0346C170.83 45.8863 171.68 45.071 172.836 45.071C173.992 45.071 174.834 45.8863 174.834 47.0346C174.834 48.1829 173.992 49.0059 172.836 49.0059C171.68 49.0059 170.83 48.1867 170.83 47.0346ZM174.13 47.0346C174.13 46.2117 173.578 45.6835 172.836 45.6835C172.093 45.6835 171.534 46.2155 171.534 47.0346C171.534 47.8576 172.093 48.3934 172.836 48.3934C173.578 48.3934 174.13 47.8576 174.13 47.0346Z" fill="white"/>
<path d="M179.125 45.1091V48.9636H178.428V45.7216H176.771L176.729 46.5789C176.663 47.9378 176.48 49.021 175.607 49.021C175.477 49.021 175.339 48.998 175.178 48.9559L175.22 48.3665C175.286 48.3818 175.343 48.3894 175.397 48.3894C176.02 48.3894 176.051 47.444 176.101 46.5368L176.166 45.113H179.125V45.1091Z" fill="white"/>
<path d="M180.12 47.0346C180.12 45.8863 180.97 45.071 182.125 45.071C183.281 45.071 184.124 45.8863 184.124 47.0346C184.124 48.1829 183.281 49.0059 182.125 49.0059C180.97 49.0059 180.12 48.1867 180.12 47.0346ZM183.423 47.0346C183.423 46.2117 182.872 45.6835 182.129 45.6835C181.387 45.6835 180.828 46.2155 180.828 47.0346C180.828 47.8576 181.387 48.3934 182.129 48.3934C182.872 48.3934 183.423 47.8576 183.423 47.0346Z" fill="white"/>
<path d="M187.974 45.7216H185.834V48.9636H185.138V45.1091H187.974V45.7216Z" fill="white"/>
<path d="M188.686 45.1091H189.383V47.9148L191.744 45.1091H192.376V48.9636H191.679V46.1579L189.325 48.9636H188.686V45.1091Z" fill="white"/>
<path d="M193.735 45.1092H194.431V47.9149L196.793 45.1092H197.425V48.9637H196.728V46.158L194.374 48.9637H193.735V45.1092ZM194.397 43.605H194.868C194.875 43.9686 195.136 44.2021 195.53 44.2021C195.928 44.2021 196.192 43.9686 196.2 43.605H196.686C196.671 44.2595 196.242 44.6078 195.538 44.6078C194.833 44.6078 194.401 44.2595 194.397 43.605Z" fill="white"/>
<defs>
<linearGradient id="paint0_linear_6_1792" x1="52.7105" y1="1.20105" x2="51.6142" y2="69.5311" gradientUnits="userSpaceOnUse">
<stop stop-color="#B7DABB"/>
<stop offset="0.6268" stop-color="#00B5D8"/>
<stop offset="1" stop-color="#009FE3"/>
</linearGradient>
<linearGradient id="paint1_linear_6_1792" x1="23.2049" y1="0.727637" x2="22.1087" y2="69.0577" gradientUnits="userSpaceOnUse">
<stop stop-color="#B7DABB"/>
<stop offset="0.6268" stop-color="#00B5D8"/>
<stop offset="1" stop-color="#009FE3"/>
</linearGradient>
<linearGradient id="paint2_linear_6_1792" x1="28.858" y1="0.818297" x2="27.7618" y2="69.1483" gradientUnits="userSpaceOnUse">
<stop stop-color="#B7DABB"/>
<stop offset="0.6268" stop-color="#00B5D8"/>
<stop offset="1" stop-color="#009FE3"/>
</linearGradient>
<linearGradient id="paint3_linear_6_1792" x1="8.96499" y1="0.499366" x2="7.86879" y2="68.8294" gradientUnits="userSpaceOnUse">
<stop stop-color="#B7DABB"/>
<stop offset="0.6268" stop-color="#00B5D8"/>
<stop offset="1" stop-color="#009FE3"/>
</linearGradient>
<linearGradient id="paint4_linear_6_1792" x1="32.6466" y1="0.87921" x2="31.5504" y2="69.2092" gradientUnits="userSpaceOnUse">
<stop stop-color="#B7DABB"/>
<stop offset="0.6268" stop-color="#00B5D8"/>
<stop offset="1" stop-color="#009FE3"/>
</linearGradient>
</defs>
</svg>
