<svg width="136" height="150" viewBox="0 0 136 150" fill="none" xmlns="http://www.w3.org/2000/svg">
<path d="M94.3326 143.947L94.3327 143.947C98.7401 147.443 103.873 148.945 109.549 149C110.096 148.955 110.611 148.928 111.111 148.901C111.964 148.855 112.771 148.812 113.609 148.693C121.365 147.439 127.592 143.858 131.801 137.164L132.648 137.697L131.801 137.164C133.833 133.933 134.846 130.381 134.607 126.608C134.306 121.926 133.931 117.258 133.555 112.582C133.349 110.027 133.143 107.47 132.949 104.906M94.3326 143.947L133.947 104.83M94.3326 143.947C88.5083 139.328 86.2858 133.325 87.1638 125.878L87.1638 125.877C87.7856 120.587 88.2522 115.267 88.7174 109.964C88.9258 107.588 89.134 105.214 89.3558 102.848C89.7437 98.7196 90.1358 94.5928 90.5279 90.4653L90.528 90.4645C90.9201 86.337 91.3123 82.2088 91.7004 78.0785C92.015 74.7363 92.3214 71.3963 92.6277 68.0577L92.6279 68.0561L92.6279 68.0558C92.9343 64.7164 93.2405 61.3784 93.5549 58.0385L93.555 58.0377C93.9133 54.1999 94.2756 50.3874 94.638 46.575C94.9889 42.882 95.3399 39.189 95.6872 35.4733C96.307 28.8429 96.9187 22.2127 97.5303 15.5831L97.5334 15.5494C97.5334 15.549 97.5335 15.5486 97.5335 15.5482C97.585 15.0071 97.6167 14.498 97.6471 14.0099C97.7117 12.9735 97.7704 12.0322 98 11.0823C98.2522 10.045 98.7678 8.98761 99.4314 8.16701L99.4321 8.16614C101.388 5.74228 104.099 4.24564 107.116 3.08809L107.117 3.08798C111.808 1.28656 116.508 0.365183 121.342 1.49419M94.3326 143.947L121.342 1.49419M132.949 104.906L133.947 104.83M132.949 104.906C132.949 104.906 132.949 104.906 132.949 104.906L133.947 104.83M132.949 104.906C132.708 101.743 132.475 98.58 132.243 95.4188V95.4187C132.01 92.2569 131.777 89.0965 131.536 85.9363M133.947 104.83C133.706 101.669 133.473 98.5068 133.24 95.3452C133.007 92.1836 132.774 89.0219 132.533 85.8603M131.536 85.9363C131.536 85.9365 131.536 85.9367 131.536 85.9368L132.533 85.8603M131.536 85.9363C131.211 81.6955 130.882 77.4702 130.554 73.2453C130.238 69.1768 129.921 65.1088 129.608 61.0277L129.608 61.0277C129.367 57.8854 129.132 54.7434 128.897 51.6024L128.897 51.6021L128.897 51.5966C128.662 48.457 128.427 45.3186 128.187 42.1804L128.187 42.1791C127.95 39.0394 127.705 35.9015 127.46 32.7621C127.215 29.6232 126.969 26.4827 126.732 23.3399C126.597 21.5476 126.468 19.7585 126.34 17.9719C126.024 13.5856 125.71 9.21376 125.304 4.84481L125.303 4.83826C125.25 4.21185 124.75 3.33621 124.159 2.83612L124.152 2.83053L124.152 2.8305C123.424 2.20333 122.384 1.73804 121.342 1.49419M131.536 85.9363L132.533 85.8603M132.533 85.8603L121.342 1.49419" stroke="#101828" stroke-width="2"/>
<path d="M29.7434 144.879L29.7427 144.879C26.272 141.324 25.2814 136.952 26.359 132.179C27.1279 128.781 28.1395 125.449 29.1627 122.078C29.5517 120.797 29.9423 119.51 30.3219 118.212C30.8155 116.527 31.3328 114.833 31.852 113.132C32.7882 110.067 33.7307 106.98 34.5525 103.883L34.5525 103.883C36.2064 97.6415 40.0496 93.1842 45.5329 89.9368C50.1629 87.1952 55.0841 85.896 60.4415 86.6358L60.442 86.6358C63.2524 87.0225 65.9619 88.2758 67.7789 90.3986C69.5721 92.4936 70.5806 95.532 69.8464 99.6948C68.7637 105.816 67.792 111.967 66.8223 118.106C66.291 121.469 65.7602 124.829 65.2122 128.178C64.3311 133.525 61.6363 137.926 57.6728 141.637L57.6715 141.638C52.8343 146.182 47.2234 148.822 40.5719 148.981C36.3371 149.011 32.6424 147.854 29.7434 144.879Z" stroke="#101828" stroke-width="2"/>
<path d="M43.1335 71.7327C42.0714 75.4743 43.6073 78.9383 47.112 80.6294C48.7051 81.3973 50.5188 81.9774 52.2671 82.0754M43.1335 71.7327L78.0747 48.0301M43.1335 71.7327C44.9389 65.3195 46.7689 58.8982 48.8685 52.5749L43.1335 71.7327ZM52.2671 82.0754C60.257 82.5166 66.956 79.551 72.4379 73.7996M52.2671 82.0754L52.3222 81.0769C52.3225 81.0769 52.3228 81.0769 52.3231 81.077M52.2671 82.0754L52.3231 81.077M72.4379 73.7996C74.2924 71.847 75.6485 69.5514 76.0897 66.8472C77.1191 60.6301 78.1076 54.4049 79.0634 48.1796L78.075 48.0279C78.0749 48.0286 78.0748 48.0293 78.0747 48.0301M72.4379 73.7996L71.7128 73.1109C71.7131 73.1106 71.7134 73.1102 71.7137 73.1099M72.4379 73.7996L71.714 73.1096C71.7139 73.1097 71.7138 73.1098 71.7137 73.1099M78.0747 48.0301C78.291 46.6005 78.1071 45.4781 77.6182 44.5837C77.1276 43.6862 76.2715 42.9114 74.9511 42.2864L74.9507 42.2862C73.2565 41.4833 71.4401 41.2168 69.4757 41.2385C63.0385 41.5258 57.4312 43.7592 52.8913 48.2834L52.8904 48.2843C51.5577 49.6093 50.3635 51.2527 49.8174 52.8905C47.726 59.1892 45.9017 65.59 44.096 72.0036L44.0955 72.0057C43.1648 75.2844 44.4836 78.2506 47.5463 79.7286C49.0609 80.4587 50.7441 80.9884 52.3231 81.077M78.0747 48.0301C77.1195 54.2512 76.1316 60.4719 75.1031 66.6839L75.1027 66.6862C74.7015 69.1455 73.4656 71.2651 71.7137 73.1099M52.3231 81.077C59.9927 81.5002 66.4144 78.6698 71.7137 73.1099" stroke="#101828" stroke-width="2"/>
<path d="M1.55235 79.3831L1.55171 79.3859C1.15964 81.0631 1.38399 82.4928 2.03939 83.587C2.69407 84.6801 3.83996 85.5406 5.48443 85.9674C6.13357 86.1333 6.76388 86.1976 7.47176 86.2699C7.8091 86.3043 8.16405 86.3405 8.54705 86.3904C11.388 86.263 14.0624 85.5284 16.608 84.3099L16.6094 84.3093C22.9551 81.2837 27.7294 76.9799 29.6374 70.1016C29.8203 69.435 30.0754 68.7543 30.3108 68.1263C30.4156 67.8464 30.5166 67.577 30.6055 67.3239L30.6059 67.3229C31.0604 66.0337 31.5167 64.747 31.9726 63.4612C33.0187 60.5107 34.063 57.5655 35.0804 54.6098L35.081 54.6081C35.6384 52.9981 35.5499 51.7145 35.0509 50.7704C34.5535 49.8292 33.5528 49.0449 31.9142 48.6251L1.55235 79.3831ZM1.55235 79.3831C1.75183 78.5187 2.08988 77.6398 2.49007 76.7767L2.49155 76.7735M1.55235 79.3831L2.49155 76.7735M2.49155 76.7735C3.30281 75.0073 4.13405 73.2388 4.96745 71.4657M2.49155 76.7735L4.96745 71.4657M17.1821 52.4613L17.1811 52.4619C13.7692 54.7078 11.216 57.608 9.57543 61.3944L17.1821 52.4613ZM17.1821 52.4613C20.7352 50.1164 24.5082 48.5382 28.7111 48.3447L28.7143 48.3445M17.1821 52.4613L28.7143 48.3445M28.7143 48.3445C29.7992 48.291 30.9128 48.3693 31.9136 48.6249L28.7143 48.3445ZM4.96745 71.4657C6.53526 68.1301 8.11073 64.7782 9.57529 61.3947L4.96745 71.4657Z" stroke="#101828" stroke-width="2"/>
<path d="M58.013 36.6825L58.013 36.6825C56.9265 36.2625 56.2788 35.6426 55.9508 34.9383C55.6192 34.2262 55.5541 33.2979 55.8843 32.1585L55.8844 32.1578C57.1094 27.9194 58.3489 23.6792 59.6529 19.4737C60.3714 17.1775 62.1384 15.6252 64.2848 14.162C68.1936 11.509 72.489 9.94104 77.1755 9.79237C78.7138 9.74775 80.3681 10.055 81.8969 10.5594L81.8976 10.5596C82.7103 10.8272 83.1468 11.2126 83.3813 11.6416C83.6253 12.0881 83.7301 12.7278 83.5909 13.642L83.5907 13.6434C82.9373 17.9717 82.2688 22.2925 81.5191 26.6028L81.519 26.6036C81.208 28.4006 80.0808 29.846 78.5921 31.1859L78.5896 31.1881C74.1277 35.2303 68.8197 37.2694 62.0259 37.6708C61.7413 37.6074 61.4328 37.5481 61.107 37.4854C60.1665 37.3045 59.0821 37.0959 58.013 36.6825Z" stroke="#101828" stroke-width="2"/>
</svg>
