<svg width="196" height="41" viewBox="0 0 196 41" fill="none" xmlns="http://www.w3.org/2000/svg">
<path d="M29.6575 40.9229C28.0912 40.9098 26.6577 40.4958 25.4246 39.5177C23.7928 38.2236 23.1698 36.5287 23.4138 34.459C23.6534 32.4199 23.8059 30.3699 23.9976 28.3242C24.2046 26.1217 24.4159 23.9213 24.6229 21.7188C24.7906 19.9367 24.9497 18.1569 25.1174 16.3748C25.3048 14.3683 25.4987 12.3619 25.686 10.3576C25.8516 8.58641 26.015 6.81524 26.1784 5.04407C26.2176 4.63232 26.2132 4.21186 26.3091 3.81536C26.3853 3.50164 26.54 3.18357 26.7426 2.93304C27.3069 2.23372 28.0803 1.81326 28.9038 1.49736C30.1804 1.00719 31.4919 0.743581 32.8535 1.06165C33.1607 1.13354 33.4809 1.27297 33.7162 1.47558C33.9145 1.64333 34.0931 1.93744 34.1149 2.19015C34.2674 3.83279 34.372 5.47978 34.4961 7.12678C34.6225 8.80209 34.7576 10.4752 34.8839 12.1505C35.0125 13.8259 35.1345 15.5012 35.263 17.1765C35.4329 19.3899 35.6072 21.6033 35.7771 23.8189C35.9057 25.5051 36.0255 27.1914 36.154 28.8776C36.3 30.8078 36.4721 32.7358 36.5963 34.6682C36.6638 35.7357 36.3762 36.7378 35.8076 37.6419C34.6377 39.5024 32.9036 40.4937 30.7708 40.8379C30.4048 40.8902 30.0279 40.8924 29.6575 40.9229Z" fill="url(#paint0_linear_6_2026)"/>
<path d="M11.2577 40.9165C10.0747 40.9252 9.01158 40.6006 8.17501 39.7423C7.1794 38.7227 6.89837 37.4613 7.20337 36.1106C7.48876 34.8492 7.90051 33.614 8.26433 32.37C8.63686 31.0977 9.05079 29.8363 9.39065 28.5553C9.8525 26.8125 10.9287 25.5707 12.4406 24.6753C13.7173 23.9194 15.0898 23.5534 16.5886 23.7603C18.1877 23.9804 19.7388 25.1938 19.3227 27.5532C18.8761 30.0782 18.5014 32.6162 18.0875 35.1455C17.8413 36.64 17.0875 37.8643 15.9961 38.8861C14.6649 40.1366 13.1073 40.8729 11.2577 40.9165Z" fill="url(#paint1_linear_6_2026)"/>
<path d="M18.9542 11.6537C19.5054 11.6472 20.0348 11.7212 20.5359 11.9587C21.3136 12.3269 21.6469 12.9216 21.5184 13.7713C21.2635 15.4313 20.9999 17.0914 20.7254 18.7493C20.6078 19.4704 20.2461 20.0826 19.7516 20.6033C18.2898 22.137 16.5034 22.9278 14.3727 22.8101C13.9065 22.784 13.4229 22.6293 12.998 22.4245C12.0634 21.9736 11.6539 21.0499 11.9371 20.0521C12.4185 18.3419 12.9065 16.6296 13.4664 14.9433C13.6298 14.4532 13.9784 13.9804 14.3509 13.6101C15.6145 12.3509 17.1765 11.7321 18.9542 11.6537Z" fill="url(#paint2_linear_6_2026)"/>
<path d="M2.70203 24.2264C2.41011 24.1872 2.11164 24.1763 1.83061 24.1044C0.839361 23.8473 0.353538 23.0369 0.588823 22.0304C0.647644 21.7755 0.745682 21.5228 0.856789 21.2831C1.48422 19.9172 2.1465 18.5665 2.74342 17.1874C3.2031 16.1265 3.91985 15.3139 4.86971 14.6886C5.84352 14.0459 6.89577 13.6015 8.07873 13.547C8.38809 13.5318 8.71269 13.5536 9.01116 13.6298C9.98933 13.8804 10.3728 14.6145 10.0416 15.5709C9.65165 16.7038 9.24644 17.8323 8.84776 18.963C8.7628 19.2048 8.66259 19.4401 8.59505 19.6862C8.05912 21.6186 6.71495 22.8168 4.97863 23.6447C4.26406 23.9867 3.5081 24.1937 2.70203 24.2264Z" fill="url(#paint3_linear_6_2026)"/>
<path d="M16.9519 11.2356C16.6927 11.1746 16.2308 11.1158 15.8082 10.9524C15.1263 10.6888 14.8779 10.1223 15.0806 9.42303C15.4073 8.29235 15.7385 7.1595 16.087 6.03536C16.3071 5.33168 16.8452 4.87419 17.4269 4.47769C18.5053 3.74569 19.6991 3.30779 21.0062 3.2664C21.455 3.25333 21.9278 3.34265 22.357 3.48426C22.8863 3.65854 23.0737 4.04197 22.9887 4.59969C22.8145 5.75433 22.6358 6.90896 22.4354 8.06143C22.3373 8.62785 21.9844 9.06356 21.5705 9.4361C20.32 10.569 18.832 11.131 16.9519 11.2356Z" fill="url(#paint4_linear_6_2026)"/>
<path d="M49.4319 20.9753C49.2099 20.9753 49.019 20.8998 48.8547 20.7488C48.6904 20.5978 48.606 20.4069 48.606 20.1716V5.65137C48.606 5.41603 48.6904 5.2251 48.8547 5.07412C49.019 4.92315 49.2099 4.84766 49.4319 4.84766C49.6673 4.84766 49.8538 4.92315 50.0003 5.07412C50.1468 5.2251 50.2179 5.42047 50.2179 5.65137V18.3332L60.5241 5.13628C60.6751 4.94534 60.8793 4.84766 61.1413 4.84766C61.3767 4.84766 61.5676 4.92315 61.7186 5.07412C61.8696 5.2251 61.9451 5.42047 61.9451 5.65137V20.1716C61.9451 20.4069 61.8696 20.5978 61.7186 20.7488C61.5676 20.8998 61.3767 20.9753 61.1413 20.9753C60.906 20.9753 60.7151 20.8998 60.5641 20.7488C60.4131 20.5978 60.3376 20.4069 60.3376 20.1716V7.50747L50.0314 20.7044C49.9648 20.7888 49.8715 20.8509 49.765 20.8998C49.654 20.9486 49.5429 20.9753 49.4319 20.9753Z" fill="white"/>
<path d="M67.7935 6.30865C67.5715 6.30865 67.3939 6.2376 67.2562 6.09995C67.1186 5.96229 67.0475 5.78911 67.0475 5.58486C67.0475 5.36283 67.1142 5.18522 67.2562 5.04757C67.3939 4.90991 67.5715 4.83887 67.7935 4.83887H79.2143C79.4363 4.83887 79.6139 4.90991 79.7516 5.04757C79.8893 5.18522 79.9603 5.36283 79.9603 5.58486C79.9603 5.79355 79.8893 5.96229 79.7516 6.09995C79.6139 6.2376 79.4363 6.30865 79.2143 6.30865H67.7935ZM73.495 20.9754C73.273 20.9754 73.0865 20.8954 72.9267 20.7356C72.7668 20.5757 72.6869 20.3892 72.6869 20.1672V4.8433H74.2988V20.1672C74.2988 20.3892 74.2233 20.5757 74.0723 20.7356C73.9213 20.8954 73.7304 20.9754 73.495 20.9754Z" fill="white"/>
<path d="M92.953 20.9753C92.6377 20.9753 92.4068 20.8466 92.2691 20.5846C92.1315 20.3226 92.1182 20.0695 92.2292 19.8208L98.3037 5.40276C98.4547 5.02976 98.7166 4.84326 99.0896 4.84326C99.4449 4.84326 99.7024 5.02976 99.8534 5.40276L105.946 19.8386C106.07 20.1006 106.052 20.3537 105.892 20.6023C105.733 20.851 105.51 20.9753 105.222 20.9753C105.058 20.9753 104.911 20.9354 104.778 20.851C104.649 20.7666 104.538 20.6423 104.458 20.478L98.7788 6.69937H99.4182L93.699 20.478C93.6279 20.6423 93.5302 20.7666 93.4015 20.851C93.2682 20.9309 93.1173 20.9753 92.953 20.9753ZM94.3162 17.1299L94.9378 15.7445H103.321L103.943 17.1299H94.3162Z" fill="white"/>
<path d="M110.217 20.9753C109.902 20.9753 109.671 20.8466 109.524 20.5846C109.378 20.3226 109.369 20.0695 109.493 19.8208L115.568 5.40276C115.719 5.02976 115.972 4.84326 116.331 4.84326C116.704 4.84326 116.966 5.02976 117.117 5.40276L123.21 19.8386C123.334 20.1006 123.321 20.3537 123.17 20.6023C123.019 20.851 122.792 20.9753 122.49 20.9753C122.326 20.9753 122.175 20.9354 122.046 20.851C121.913 20.7666 121.815 20.6423 121.749 20.478L116.047 6.69937H116.709L110.967 20.478C110.896 20.6423 110.799 20.7666 110.67 20.851C110.532 20.9309 110.386 20.9753 110.217 20.9753Z" fill="white"/>
<path d="M129.306 20.9754C129.044 20.9754 128.827 20.9043 128.653 20.7578C128.48 20.6113 128.396 20.4159 128.396 20.1672V5.56266C128.396 5.35396 128.471 5.18522 128.622 5.04757C128.773 4.90991 128.964 4.83887 129.2 4.83887C129.435 4.83887 129.626 4.90991 129.777 5.04757C129.928 5.18522 130.003 5.3584 130.003 5.56266V11.2819H134.692C135.656 11.2819 136.513 11.4906 137.263 11.9036C138.014 12.3165 138.604 12.8849 139.031 13.6087C139.457 14.3325 139.67 15.154 139.67 16.0776C139.67 17.0411 139.457 17.8937 139.031 18.6308C138.604 19.3679 138.014 19.9407 137.263 20.3537C136.513 20.7667 135.656 20.9754 134.692 20.9754H129.306ZM130.008 19.5056H134.697C135.358 19.5056 135.945 19.359 136.451 19.0615C136.961 18.764 137.361 18.3555 137.65 17.8315C137.938 17.3076 138.085 16.7037 138.085 16.0154C138.085 15.3405 137.938 14.7543 137.65 14.2614C137.361 13.7641 136.961 13.3822 136.451 13.1158C135.94 12.8449 135.358 12.7117 134.697 12.7117H130.008V19.5056Z" fill="white"/>
<path d="M145.784 20.9753C145.411 20.9753 145.163 20.8509 145.029 20.6023C144.901 20.3536 144.936 20.065 145.145 19.7364L148.946 13.7862L150.558 14.2214L146.49 20.5623C146.406 20.7 146.313 20.8021 146.202 20.8731C146.091 20.9397 145.953 20.9753 145.784 20.9753ZM154.914 20.9753C154.678 20.9753 154.488 20.8998 154.337 20.7488C154.186 20.5978 154.11 20.4069 154.11 20.1716V14.6565H149.936V14.4478C149.039 14.4478 148.213 14.248 147.458 13.8484C146.699 13.4488 146.095 12.9026 145.642 12.2054C145.189 11.5083 144.958 10.7135 144.958 9.82094C144.958 8.84404 145.18 7.9826 145.629 7.24105C146.077 6.49506 146.69 5.91336 147.476 5.48708C148.262 5.0608 149.163 4.84766 150.18 4.84766H154.909C155.145 4.84766 155.336 4.92315 155.487 5.07412C155.638 5.2251 155.713 5.42047 155.713 5.65137V20.1716C155.713 20.4069 155.638 20.5978 155.487 20.7488C155.34 20.8998 155.149 20.9753 154.914 20.9753ZM150.185 13.1468H154.11V6.39293H150.185C149.47 6.39293 148.839 6.53058 148.293 6.80588C147.751 7.08119 147.321 7.47639 147.014 7.99148C146.708 8.50657 146.548 9.11935 146.548 9.82094C146.548 10.4959 146.703 11.082 147.014 11.5749C147.325 12.0722 147.751 12.4585 148.293 12.7339C148.839 13.0092 149.47 13.1468 150.185 13.1468Z" fill="white"/>
<path d="M163.382 20.9753C163.147 20.9753 162.956 20.8998 162.805 20.7488C162.654 20.5978 162.578 20.4069 162.578 20.1716V5.65137C162.578 5.41603 162.654 5.2251 162.805 5.07412C162.956 4.92315 163.147 4.84766 163.382 4.84766C163.617 4.84766 163.808 4.92315 163.959 5.07412C164.11 5.2251 164.186 5.42047 164.186 5.65137V12.0944H174.266V5.65137C174.266 5.41603 174.341 5.2251 174.492 5.07412C174.643 4.92315 174.834 4.84766 175.069 4.84766C175.305 4.84766 175.496 4.92315 175.647 5.07412C175.798 5.2251 175.873 5.42047 175.873 5.65137V20.1716C175.873 20.4069 175.798 20.5978 175.647 20.7488C175.496 20.8998 175.3 20.9753 175.069 20.9753C174.834 20.9753 174.643 20.8998 174.492 20.7488C174.341 20.5978 174.266 20.4069 174.266 20.1716V13.542H164.186V20.1716C164.186 20.4069 164.11 20.5978 163.959 20.7488C163.808 20.8998 163.617 20.9753 163.382 20.9753Z" fill="white"/>
<path d="M189.985 21.1797C188.87 21.1797 187.827 20.9665 186.854 20.5403C185.882 20.114 185.029 19.519 184.292 18.7552C183.555 17.9915 182.982 17.1123 182.569 16.1132C182.156 15.1141 181.948 14.0439 181.948 12.9027C181.948 11.7749 182.152 10.7092 182.556 9.71008C182.96 8.71098 183.533 7.83177 184.27 7.0769C185.007 6.31759 185.86 5.72257 186.832 5.29185C187.8 4.85669 188.852 4.64355 189.98 4.64355C190.971 4.64355 191.872 4.79008 192.685 5.07871C193.497 5.36734 194.283 5.82915 195.038 6.46413C195.162 6.56182 195.233 6.67283 195.256 6.80604C195.278 6.93925 195.26 7.05914 195.202 7.17903C195.149 7.29448 195.065 7.3833 194.954 7.43658C194.927 7.5476 194.856 7.62752 194.749 7.68525C194.638 7.73853 194.51 7.76073 194.367 7.74741C194.221 7.73409 194.079 7.67193 193.946 7.56092C193.408 7.09467 192.822 6.74388 192.192 6.51741C191.557 6.29095 190.82 6.17549 189.98 6.17549C189.083 6.17549 188.249 6.35312 187.472 6.71279C186.694 7.07247 186.006 7.56091 185.416 8.17813C184.825 8.79979 184.359 9.51469 184.021 10.3273C183.684 11.1399 183.515 12.0013 183.515 12.9072C183.515 13.8441 183.684 14.7189 184.021 15.5315C184.359 16.3441 184.825 17.059 185.416 17.6806C186.006 18.3023 186.694 18.7863 187.472 19.1371C188.249 19.4879 189.083 19.6655 189.98 19.6655C190.74 19.6655 191.455 19.5412 192.13 19.2925C192.804 19.0438 193.444 18.6886 194.052 18.2179C194.217 18.0803 194.394 18.027 194.581 18.0536C194.767 18.0803 194.927 18.1646 195.065 18.3023C195.202 18.4399 195.273 18.6176 195.273 18.8396C195.273 18.9506 195.256 19.0483 195.22 19.1371C195.185 19.2259 195.127 19.3191 195.042 19.4168C194.341 20.0651 193.555 20.5225 192.689 20.7889C191.823 21.0465 190.922 21.1797 189.985 21.1797Z" fill="white"/>
<path d="M48.606 32.7904C48.606 30.8597 49.8828 29.4497 51.6065 29.4497C52.4789 29.4497 53.2407 29.7936 53.7557 30.4667L53.2322 31.0562C52.7939 30.5256 52.2619 30.28 51.6405 30.28C50.3637 30.28 49.4189 31.3411 49.4189 32.7904C49.4189 34.2347 50.3637 35.3008 51.6405 35.3008C52.2619 35.3008 52.7981 35.0503 53.2322 34.5148L53.7557 35.1043C53.2365 35.7773 52.4789 36.1311 51.5979 36.1311C49.8828 36.1311 48.606 34.7211 48.606 32.7904Z" fill="white"/>
<path d="M54.1684 33.5813C54.1684 32.1075 55.1132 31.061 56.3985 31.061C57.6838 31.061 58.6201 32.1075 58.6201 33.5813C58.6201 35.0551 57.6838 36.1114 56.3985 36.1114C55.1132 36.1114 54.1684 35.06 54.1684 33.5813ZM57.837 33.5813C57.837 32.525 57.2241 31.8471 56.3985 31.8471C55.5728 31.8471 54.9515 32.53 54.9515 33.5813C54.9515 34.6375 55.5728 35.3253 56.3985 35.3253C57.2241 35.3253 57.837 34.6375 57.837 33.5813Z" fill="white"/>
<path d="M65.711 33.5813C65.711 35.0551 64.7874 36.1114 63.5362 36.1114C62.3956 36.1114 61.5317 35.232 61.3869 33.9645H60.523V36.0573H59.7484V31.1102H60.523V33.1342H61.3955C61.5572 31.8913 62.4126 31.061 63.5362 31.061C64.7917 31.0659 65.711 32.0976 65.711 33.5813ZM64.9449 33.5813C64.9449 32.525 64.3321 31.8471 63.5362 31.8471C62.7361 31.8471 62.1275 32.53 62.1275 33.5813C62.1275 34.6474 62.7361 35.3253 63.5362 35.3253C64.3321 35.3302 64.9449 34.6474 64.9449 33.5813Z" fill="white"/>
<path d="M69.9963 34.618C69.9963 35.5121 69.1408 36.1213 68.0002 36.1213C67.3619 36.1213 66.732 35.9149 66.2553 35.5612L66.4894 34.8783C66.9022 35.1878 67.4683 35.3549 67.9917 35.3549C68.7195 35.3549 69.1962 35.0454 69.1962 34.5443C69.1962 34.0874 68.8259 33.827 68.1918 33.827H67.4087V33.1834H68.1364C68.711 33.1834 69.0727 32.9427 69.0727 32.5202C69.0727 32.0732 68.6344 31.8128 67.9832 31.8128C67.5449 31.8128 67.1022 31.9454 66.6341 32.196L66.4255 31.5033C66.9831 31.179 67.5151 31.0464 68.0683 31.0464C69.111 31.0464 69.8814 31.5868 69.8814 32.3925C69.8814 32.8887 69.5749 33.2866 69.1068 33.4831C69.6728 33.6501 69.9963 34.053 69.9963 34.618Z" fill="white"/>
<path d="M77.0311 31.1104V36.0575H76.2565V31.8964H74.4137L74.3669 32.9969C74.2946 34.7409 74.0903 36.1312 73.1199 36.1312C72.9752 36.1312 72.822 36.1017 72.6432 36.0477L72.6901 35.2911C72.7624 35.3108 72.8263 35.3206 72.8858 35.3206C73.5796 35.3206 73.6136 34.1071 73.6689 32.9428L73.7413 31.1153H77.0311V31.1104Z" fill="white"/>
<path d="M84.501 33.5813C84.501 35.0551 83.5775 36.1114 82.3262 36.1114C81.1856 36.1114 80.3217 35.232 80.177 33.9645H79.313V36.0573H78.5385V31.1102H79.313V33.1342H80.1855C80.3472 31.8913 81.2027 31.061 82.3262 31.061C83.5817 31.0659 84.501 32.0976 84.501 33.5813ZM83.7349 33.5813C83.7349 32.525 83.1221 31.8471 82.3262 31.8471C81.5261 31.8471 80.9175 32.53 80.9175 33.5813C80.9175 34.6474 81.5261 35.3253 82.3262 35.3253C83.1178 35.3302 83.7349 34.6474 83.7349 33.5813Z" fill="white"/>
<path d="M89.9432 35.2715V37.2022H89.2155V36.0526H85.632V37.2022H84.8957V35.2715H85.1213C85.7341 35.2322 85.8405 34.0285 85.8958 32.7807L85.9597 31.1104H89.2836V35.2715H89.9432ZM86.1086 35.2715H88.509V31.8915H86.6491L86.6108 32.8446C86.5768 33.8713 86.4959 34.8834 86.1086 35.2715Z" fill="white"/>
<path d="M94.8082 33.881H91.3311C91.429 34.7505 92.0333 35.3302 92.8845 35.3302C93.3867 35.3302 93.8038 35.1337 94.123 34.7309L94.5528 35.3106C94.1656 35.8313 93.574 36.1114 92.8632 36.1114C91.4801 36.1114 90.5608 35.0551 90.5608 33.5813C90.5608 32.1173 91.4758 31.061 92.71 31.061C93.9485 31.061 94.8295 32.0878 94.8295 33.6108C94.8252 33.6845 94.8167 33.7974 94.8082 33.881ZM91.3354 33.2374H94.0847C94.0038 32.4071 93.4633 31.8176 92.71 31.8176C91.9652 31.8176 91.4162 32.3973 91.3354 33.2374Z" fill="white"/>
<path d="M96.0297 31.1104H96.8043V34.7114L99.4302 31.1104H100.132V36.0576H99.3579V32.4565L96.7405 36.0576H96.0297V31.1104ZM96.766 29.1797H97.2895C97.298 29.6464 97.5874 29.9461 98.0258 29.9461C98.4684 29.9461 98.762 29.6464 98.7705 29.1797H99.3111C99.294 30.0198 98.8174 30.4668 98.0343 30.4668C97.2512 30.4668 96.7745 30.0198 96.766 29.1797Z" fill="white"/>
<path d="M103.818 31.1104H104.593V34.7114L107.219 31.1104H107.921V36.0575H107.146V32.4564L104.529 36.0575H103.818V31.1104Z" fill="white"/>
<path d="M114.795 31.8964H113.229V36.0575H112.454V31.8964H110.883V31.1104H114.795V31.8964Z" fill="white"/>
<path d="M119.259 33.881H115.782C115.88 34.7505 116.484 35.3302 117.336 35.3302C117.838 35.3302 118.255 35.1337 118.574 34.7309L119.004 35.3106C118.617 35.8313 118.025 36.1114 117.314 36.1114C115.931 36.1114 115.012 35.0551 115.012 33.5813C115.012 32.1173 115.927 31.061 117.161 31.061C118.399 31.061 119.28 32.0878 119.28 33.6108C119.276 33.6845 119.268 33.7974 119.259 33.881ZM115.782 33.2374H118.531C118.451 32.4071 117.91 31.8176 117.157 31.8176C116.412 31.8176 115.863 32.3973 115.782 33.2374Z" fill="white"/>
<path d="M123.033 36.0575L121.795 34.1612L120.539 36.0575H119.675L121.365 33.5274L119.756 31.1104H120.62L121.799 32.8937L122.969 31.1104H123.82L122.203 33.5274L123.91 36.0575H123.033Z" fill="white"/>
<path d="M124.732 31.1104H125.506V33.213H127.949V31.1104H128.724V36.0575H127.949V33.9843H125.506V36.0575H124.732V31.1104Z" fill="white"/>
<path d="M129.843 33.5813C129.843 32.1075 130.788 31.061 132.073 31.061C133.358 31.061 134.294 32.1075 134.294 33.5813C134.294 35.0551 133.358 36.1114 132.073 36.1114C130.788 36.1114 129.843 35.06 129.843 33.5813ZM133.511 33.5813C133.511 32.525 132.898 31.8471 132.073 31.8471C131.247 31.8471 130.626 32.53 130.626 33.5813C130.626 34.6375 131.247 35.3253 132.073 35.3253C132.898 35.3253 133.511 34.6375 133.511 33.5813Z" fill="white"/>
<path d="M139.066 31.1104V36.0575H138.292V31.8964H136.449L136.402 32.9969C136.33 34.7409 136.126 36.1312 135.155 36.1312C135.01 36.1312 134.857 36.1017 134.679 36.0477L134.725 35.2911C134.798 35.3108 134.862 35.3206 134.921 35.3206C135.615 35.3206 135.649 34.1071 135.704 32.9428L135.777 31.1153H139.066V31.1104Z" fill="white"/>
<path d="M140.173 33.5813C140.173 32.1075 141.118 31.061 142.403 31.061C143.688 31.061 144.625 32.1075 144.625 33.5813C144.625 35.0551 143.688 36.1114 142.403 36.1114C141.118 36.1114 140.173 35.06 140.173 33.5813ZM143.846 33.5813C143.846 32.525 143.233 31.8471 142.407 31.8471C141.582 31.8471 140.96 32.53 140.96 33.5813C140.96 34.6375 141.582 35.3253 142.407 35.3253C143.233 35.3253 143.846 34.6375 143.846 33.5813Z" fill="white"/>
<path d="M148.906 31.8964H146.527V36.0575H145.753V31.1104H148.906V31.8964Z" fill="white"/>
<path d="M149.697 31.1104H150.471V34.7114L153.097 31.1104H153.8V36.0575H153.025V32.4564L150.408 36.0575H149.697V31.1104Z" fill="white"/>
<path d="M155.311 31.1104H156.086V34.7114L158.712 31.1104H159.414V36.0576H158.639V32.4565L156.022 36.0576H155.311V31.1104ZM156.047 29.1797H156.571C156.579 29.6464 156.869 29.9461 157.307 29.9461C157.75 29.9461 158.044 29.6464 158.052 29.1797H158.593C158.576 30.0198 158.099 30.4668 157.316 30.4668C156.533 30.4668 156.052 30.0198 156.047 29.1797Z" fill="white"/>
<defs>
<linearGradient id="paint0_linear_6_2026" x1="30.5315" y1="1.05771" x2="29.9076" y2="39.9489" gradientUnits="userSpaceOnUse">
<stop stop-color="#B7DABB"/>
<stop offset="0.6268" stop-color="#00B5D8"/>
<stop offset="1" stop-color="#009FE3"/>
</linearGradient>
<linearGradient id="paint1_linear_6_2026" x1="13.7382" y1="0.788486" x2="13.1143" y2="39.6797" gradientUnits="userSpaceOnUse">
<stop stop-color="#B7DABB"/>
<stop offset="0.6268" stop-color="#00B5D8"/>
<stop offset="1" stop-color="#009FE3"/>
</linearGradient>
<linearGradient id="paint2_linear_6_2026" x1="16.9554" y1="0.839795" x2="16.3315" y2="39.731" gradientUnits="userSpaceOnUse">
<stop stop-color="#B7DABB"/>
<stop offset="0.6268" stop-color="#00B5D8"/>
<stop offset="1" stop-color="#009FE3"/>
</linearGradient>
<linearGradient id="paint3_linear_6_2026" x1="5.63286" y1="0.65831" x2="5.00894" y2="39.5495" gradientUnits="userSpaceOnUse">
<stop stop-color="#B7DABB"/>
<stop offset="0.6268" stop-color="#00B5D8"/>
<stop offset="1" stop-color="#009FE3"/>
</linearGradient>
<linearGradient id="paint4_linear_6_2026" x1="19.1116" y1="0.874555" x2="18.4877" y2="39.7658" gradientUnits="userSpaceOnUse">
<stop stop-color="#B7DABB"/>
<stop offset="0.6268" stop-color="#00B5D8"/>
<stop offset="1" stop-color="#009FE3"/>
</linearGradient>
</defs>
</svg>
