<svg width="40" height="40" viewBox="0 0 40 40" fill="none" xmlns="http://www.w3.org/2000/svg">
<g clip-path="url(#clip0_15_206)">
<path fill-rule="evenodd" clip-rule="evenodd" d="M2.5 36.2437C2.5 35.5533 3.05964 34.9937 3.75 34.9937H22.5C23.1904 34.9937 23.75 35.5533 23.75 36.2437C23.75 36.934 23.1904 37.4937 22.5 37.4937H3.75C3.05964 37.4937 2.5 36.934 2.5 36.2437Z" fill="#101828"/>
<path fill-rule="evenodd" clip-rule="evenodd" d="M5 29.9937C5 29.3033 5.55964 28.7437 6.25 28.7437H20C20.6904 28.7437 21.25 29.3033 21.25 29.9937V36.2437C21.25 36.934 20.6904 37.4937 20 37.4937C19.3096 37.4937 18.75 36.934 18.75 36.2437V31.2437H7.5V36.2437C7.5 36.934 6.94036 37.4937 6.25 37.4937C5.55964 37.4937 5 36.934 5 36.2437V29.9937Z" fill="#101828"/>
<path fill-rule="evenodd" clip-rule="evenodd" d="M13.888 15.3705C13.3999 15.8587 13.3999 16.6501 13.888 17.1383L17.8478 21.0981C18.336 21.5862 19.1275 21.5862 19.6156 21.0981L28.5782 12.1355C29.0663 11.6473 29.0663 10.8559 28.5782 10.3677L24.6184 6.40793C24.1302 5.91978 23.3388 5.91978 22.8506 6.40793L13.888 15.3705ZM12.1203 18.906C10.6558 17.4416 10.6558 15.0672 12.1203 13.6027L21.0829 4.64017C22.5473 3.1757 24.9217 3.1757 26.3862 4.64017L30.346 8.59996C31.8104 10.0644 31.8104 12.4388 30.346 13.9033L21.3834 22.8658C19.9189 24.3303 17.5445 24.3303 16.0801 22.8658L12.1203 18.906Z" fill="#101828"/>
<path fill-rule="evenodd" clip-rule="evenodd" d="M24.1161 16.6098C24.6043 16.1216 25.3957 16.1216 25.8839 16.6098L37.1339 27.8598C37.622 28.3479 37.622 29.1394 37.1339 29.6275C36.6457 30.1157 35.8543 30.1157 35.3661 29.6275L24.1161 18.3775C23.628 17.8894 23.628 17.0979 24.1161 16.6098Z" fill="#101828"/>
</g>
<defs>
<clipPath id="clip0_15_206">
<rect width="40" height="40" fill="white"/>
</clipPath>
</defs>
</svg>
