<svg width="36" height="36" viewBox="0 0 36 36" fill="none" xmlns="http://www.w3.org/2000/svg">
<g clip-path="url(#clip0_15_386)">
<path fill-rule="evenodd" clip-rule="evenodd" d="M2.33058 14.8306C3.50269 13.6585 5.0924 13 6.75 13H14.25C14.9404 13 15.5 13.5596 15.5 14.25C15.5 14.9404 14.9404 15.5 14.25 15.5H6.75C5.75544 15.5 4.80161 15.8951 4.09835 16.5983C3.39509 17.3016 3 18.2554 3 19.25V28H5.5C6.19036 28 6.75 28.5596 6.75 29.25C6.75 29.9404 6.19036 30.5 5.5 30.5H1.75C1.05964 30.5 0.5 29.9404 0.5 29.25V19.25C0.5 17.5924 1.15848 16.0027 2.33058 14.8306Z" fill="#101828"/>
<path fill-rule="evenodd" clip-rule="evenodd" d="M14.0984 9.09835C14.8016 8.39509 15.7554 8 16.75 8H31.75C32.7446 8 33.6984 8.39509 34.4016 9.09835C35.1049 9.80161 35.5 10.7554 35.5 11.75V29.25C35.5 29.9404 34.9404 30.5 34.25 30.5H31.75C31.0596 30.5 30.5 29.9404 30.5 29.25C30.5 28.5596 31.0596 28 31.75 28H33V11.75C33 11.4185 32.8683 11.1005 32.6339 10.8661C32.3995 10.6317 32.0815 10.5 31.75 10.5H16.75C16.4185 10.5 16.1005 10.6317 15.8661 10.8661C15.6317 11.1005 15.5 11.4185 15.5 11.75V25.95C15.5 26.6404 14.9404 27.2 14.25 27.2C13.5596 27.2 13 26.6404 13 25.95V11.75C13 10.7554 13.3951 9.80161 14.0984 9.09835Z" fill="#101828"/>
<path fill-rule="evenodd" clip-rule="evenodd" d="M14.25 29.25C14.25 28.5596 14.8096 28 15.5 28H21.75C22.4404 28 23 28.5596 23 29.25C23 29.9404 22.4404 30.5 21.75 30.5H15.5C14.8096 30.5 14.25 29.9404 14.25 29.25Z" fill="#101828"/>
<path fill-rule="evenodd" clip-rule="evenodd" d="M10.5 25.5C8.42893 25.5 6.75 27.1789 6.75 29.25C6.75 31.3211 8.42893 33 10.5 33C12.5711 33 14.25 31.3211 14.25 29.25C14.25 27.1789 12.5711 25.5 10.5 25.5ZM4.25 29.25C4.25 25.7982 7.04822 23 10.5 23C13.9518 23 16.75 25.7982 16.75 29.25C16.75 32.7018 13.9518 35.5 10.5 35.5C7.04822 35.5 4.25 32.7018 4.25 29.25Z" fill="#101828"/>
<path fill-rule="evenodd" clip-rule="evenodd" d="M26.75 25.5C24.6789 25.5 23 27.1789 23 29.25C23 31.3211 24.6789 33 26.75 33C28.8211 33 30.5 31.3211 30.5 29.25C30.5 27.1789 28.8211 25.5 26.75 25.5ZM20.5 29.25C20.5 25.7982 23.2982 23 26.75 23C30.2018 23 33 25.7982 33 29.25C33 32.7018 30.2018 35.5 26.75 35.5C23.2982 35.5 20.5 32.7018 20.5 29.25Z" fill="#101828"/>
</g>
<defs>
<clipPath id="clip0_15_386">
<rect width="35" height="35" fill="white" transform="translate(0.5 0.5)"/>
</clipPath>
</defs>
</svg>
