<svg width="40" height="40" viewBox="0 0 40 40" fill="none" xmlns="http://www.w3.org/2000/svg">
<path fill-rule="evenodd" clip-rule="evenodd" d="M12.0834 14.1667C12.0834 13.4764 12.643 12.9167 13.3334 12.9167H26.6667C27.3571 12.9167 27.9167 13.4764 27.9167 14.1667V27.5001C27.9167 28.1904 27.3571 28.7501 26.6667 28.7501H13.3334C12.643 28.7501 12.0834 28.1904 12.0834 27.5001V14.1667ZM14.5834 15.4167V26.2501H25.4167V15.4167H14.5834Z" fill="#101828"/>
<path fill-rule="evenodd" clip-rule="evenodd" d="M2.08337 32.5C2.08337 29.0596 4.89302 26.25 8.33337 26.25H13.3334C14.0237 26.25 14.5834 26.8096 14.5834 27.5V32.5C14.5834 35.9404 11.7737 38.75 8.33337 38.75C4.89302 38.75 2.08337 35.9404 2.08337 32.5ZM8.33337 28.75C6.27373 28.75 4.58337 30.4404 4.58337 32.5C4.58337 34.5596 6.27373 36.25 8.33337 36.25C10.393 36.25 12.0834 34.5596 12.0834 32.5V28.75H8.33337Z" fill="#101828"/>
<path fill-rule="evenodd" clip-rule="evenodd" d="M2.08337 9.16675C2.08337 5.72639 4.89302 2.91675 8.33337 2.91675C11.7737 2.91675 14.5834 5.72639 14.5834 9.16675V14.1667C14.5834 14.8571 14.0237 15.4167 13.3334 15.4167H8.33337C4.89302 15.4167 2.08337 12.6071 2.08337 9.16675ZM8.33337 5.41675C6.27373 5.41675 4.58337 7.1071 4.58337 9.16675C4.58337 11.2264 6.27373 12.9167 8.33337 12.9167H12.0834V9.16675C12.0834 7.1071 10.393 5.41675 8.33337 5.41675Z" fill="#101828"/>
<path fill-rule="evenodd" clip-rule="evenodd" d="M25.4167 9.16675C25.4167 5.72639 28.2264 2.91675 31.6667 2.91675C35.1071 2.91675 37.9167 5.72639 37.9167 9.16675C37.9167 12.6071 35.1071 15.4167 31.6667 15.4167H26.6667C25.9764 15.4167 25.4167 14.8571 25.4167 14.1667V9.16675ZM31.6667 5.41675C29.6071 5.41675 27.9167 7.1071 27.9167 9.16675V12.9167H31.6667C33.7264 12.9167 35.4167 11.2264 35.4167 9.16675C35.4167 7.1071 33.7264 5.41675 31.6667 5.41675Z" fill="#101828"/>
<path fill-rule="evenodd" clip-rule="evenodd" d="M25.4167 27.5C25.4167 26.8096 25.9764 26.25 26.6667 26.25H31.6667C35.1071 26.25 37.9167 29.0596 37.9167 32.5C37.9167 35.9404 35.1071 38.75 31.6667 38.75C28.2264 38.75 25.4167 35.9404 25.4167 32.5V27.5ZM27.9167 28.75V32.5C27.9167 34.5596 29.6071 36.25 31.6667 36.25C33.7264 36.25 35.4167 34.5596 35.4167 32.5C35.4167 30.4404 33.7264 28.75 31.6667 28.75H27.9167Z" fill="#101828"/>
</svg>
