<svg width="32" height="32" viewBox="0 0 32 32" fill="none" xmlns="http://www.w3.org/2000/svg">
<path fill-rule="evenodd" clip-rule="evenodd" d="M2.85696 4.4043C2.80436 4.4043 2.76172 4.44694 2.76172 4.49953V22.0233C2.76172 22.0759 2.80436 22.1186 2.85696 22.1186H29.1427C29.1953 22.1186 29.2379 22.0759 29.2379 22.0233V4.49953C29.2379 4.44694 29.1953 4.4043 29.1427 4.4043H2.85696ZM0.761719 4.49953C0.761719 3.34237 1.69979 2.4043 2.85696 2.4043H29.1427C30.2998 2.4043 31.2379 3.34237 31.2379 4.49953V22.0233C31.2379 23.1805 30.2998 24.1186 29.1427 24.1186H2.85696C1.69979 24.1186 0.761719 23.1805 0.761719 22.0233V4.49953Z" fill="#101828"/>
<path fill-rule="evenodd" clip-rule="evenodd" d="M14.1803 22.1909C14.6931 22.396 14.9425 22.978 14.7374 23.4908L12.5469 28.967C12.3418 29.4798 11.7598 29.7292 11.247 29.5241C10.7343 29.319 10.4848 28.737 10.69 28.2242L12.8804 22.748C13.0855 22.2352 13.6675 21.9858 14.1803 22.1909Z" fill="#101828"/>
<path fill-rule="evenodd" clip-rule="evenodd" d="M17.8193 22.1909C18.3321 21.9858 18.9141 22.2352 19.1192 22.748L21.3096 28.2242C21.5148 28.737 21.2653 29.319 20.7526 29.5241C20.2398 29.7292 19.6578 29.4798 19.4527 28.967L17.2622 23.4908C17.0571 22.978 17.3065 22.396 17.8193 22.1909Z" fill="#101828"/>
<path fill-rule="evenodd" clip-rule="evenodd" d="M8.42871 28.5957C8.42871 28.0434 8.87643 27.5957 9.42871 27.5957H22.5716C23.1239 27.5957 23.5716 28.0434 23.5716 28.5957C23.5716 29.148 23.1239 29.5957 22.5716 29.5957H9.42871C8.87643 29.5957 8.42871 29.148 8.42871 28.5957Z" fill="#101828"/>
</svg>
