<svg width="40" height="40" viewBox="0 0 40 40" fill="none" xmlns="http://www.w3.org/2000/svg">
<g clip-path="url(#clip0_15_135)">
<path fill-rule="evenodd" clip-rule="evenodd" d="M3.75195 29.1472C3.75077 29.15 3.75 29.1525 3.75 29.1577V35.6992C3.75 35.7044 3.75077 35.707 3.75195 35.7097C3.75355 35.7134 3.7574 35.7201 3.76547 35.728C3.78153 35.7436 3.80773 35.7575 3.84615 35.7575H10.5769C10.6154 35.7575 10.6415 35.7436 10.6576 35.728C10.6657 35.7201 10.6695 35.7134 10.6711 35.7097C10.6723 35.707 10.6731 35.7044 10.6731 35.6992V29.1577C10.6731 29.1525 10.6723 29.15 10.6711 29.1472C10.6695 29.1436 10.6657 29.1368 10.6576 29.129C10.6415 29.1133 10.6154 29.0994 10.5769 29.0994H3.84615C3.80773 29.0994 3.78153 29.1133 3.76547 29.129C3.7574 29.1368 3.75355 29.1436 3.75195 29.1472ZM1.25 29.1577C1.25 27.7114 2.44618 26.5994 3.84615 26.5994H10.5769C11.9769 26.5994 13.1731 27.7114 13.1731 29.1577V35.6992C13.1731 37.1455 11.9769 38.2575 10.5769 38.2575H3.84615C2.44618 38.2575 1.25 37.1455 1.25 35.6992V29.1577Z" fill="#101828"/>
<path fill-rule="evenodd" clip-rule="evenodd" d="M29.3289 29.1472C29.3277 29.15 29.327 29.1525 29.327 29.1577V35.6992C29.327 35.7044 29.3277 35.707 29.3289 35.7097C29.3305 35.7134 29.3344 35.7201 29.3424 35.728C29.3585 35.7436 29.3847 35.7575 29.4231 35.7575H36.1539C36.1923 35.7575 36.2185 35.7436 36.2346 35.728C36.2426 35.7201 36.2465 35.7134 36.2481 35.7097C36.2493 35.707 36.25 35.7044 36.25 35.6992V29.1577C36.25 29.1525 36.2493 29.15 36.2481 29.1472C36.2465 29.1436 36.2426 29.1368 36.2346 29.129C36.2185 29.1133 36.1923 29.0994 36.1539 29.0994H29.4231C29.3847 29.0994 29.3585 29.1133 29.3424 29.129C29.3344 29.1368 29.3305 29.1436 29.3289 29.1472ZM26.827 29.1577C26.827 27.7114 28.0231 26.5994 29.4231 26.5994H36.1539C37.5539 26.5994 38.75 27.7114 38.75 29.1577V35.6992C38.75 37.1455 37.5539 38.2575 36.1539 38.2575H29.4231C28.0231 38.2575 26.827 37.1455 26.827 35.6992V29.1577Z" fill="#101828"/>
<path fill-rule="evenodd" clip-rule="evenodd" d="M15.8673 4.28932C15.8661 4.29205 15.8654 4.29462 15.8654 4.29977V12.1496C15.8654 12.1548 15.8661 12.1574 15.8673 12.1601C15.8689 12.1638 15.8728 12.1705 15.8808 12.1784C15.8969 12.194 15.9231 12.208 15.9615 12.208H24.0384C24.0769 12.208 24.1031 12.194 24.1191 12.1784C24.1272 12.1705 24.131 12.1638 24.1326 12.1601C24.1338 12.1574 24.1346 12.1548 24.1346 12.1496V4.29977C24.1346 4.29462 24.1338 4.29205 24.1326 4.28932C24.131 4.28564 24.1272 4.27889 24.1191 4.27104C24.1031 4.25544 24.0769 4.24146 24.0384 4.24146H15.9615C15.9231 4.24146 15.8969 4.25544 15.8808 4.27104C15.8728 4.27889 15.8689 4.28564 15.8673 4.28932ZM13.3654 4.29977C13.3654 2.85349 14.5615 1.74146 15.9615 1.74146H24.0384C25.4384 1.74146 26.6346 2.85349 26.6346 4.29977V12.1496C26.6346 13.5959 25.4384 14.708 24.0384 14.708H15.9615C14.5615 14.708 13.3654 13.5959 13.3654 12.1496V4.29977Z" fill="#101828"/>
<path fill-rule="evenodd" clip-rule="evenodd" d="M10.673 33.083C10.673 32.3927 11.2327 31.833 11.923 31.833H28.0769C28.7672 31.833 29.3269 32.3927 29.3269 33.083C29.3269 33.7734 28.7672 34.333 28.0769 34.333H11.923C11.2327 34.333 10.673 33.7734 10.673 33.083Z" fill="#101828"/>
<path fill-rule="evenodd" clip-rule="evenodd" d="M15.3867 11.7763C16.0122 12.0682 16.2827 12.8121 15.9907 13.4376L9.01765 28.3786C8.72569 29.0041 7.98187 29.2746 7.35629 28.9826C6.73072 28.6907 6.46027 27.9468 6.75223 27.3213L13.7253 12.3803C14.0173 11.7548 14.7611 11.4843 15.3867 11.7763Z" fill="#101828"/>
<path fill-rule="evenodd" clip-rule="evenodd" d="M24.6137 11.7763C25.2393 11.4843 25.9831 11.7548 26.2751 12.3803L33.2482 27.3213C33.5401 27.9468 33.2697 28.6907 32.6441 28.9826C32.0185 29.2746 31.2747 29.0041 30.9828 28.3786L24.0097 13.4376C23.7177 12.8121 23.9882 12.0682 24.6137 11.7763Z" fill="#101828"/>
</g>
<defs>
<clipPath id="clip0_15_135">
<rect width="40" height="40" fill="white"/>
</clipPath>
</defs>
</svg>
