<svg width="32" height="32" viewBox="0 0 32 32" fill="none" xmlns="http://www.w3.org/2000/svg">
<path fill-rule="evenodd" clip-rule="evenodd" d="M2.97285 10.9133C3.53261 10.3535 4.2918 10.0391 5.08341 10.0391H26.9159C27.7076 10.0391 28.4667 10.3535 29.0265 10.9133C29.5862 11.473 29.9007 12.2322 29.9007 13.0238V21.9553C29.9007 22.7469 29.5862 23.5061 29.0265 24.0659C28.4667 24.6256 27.7076 24.9401 26.9159 24.9401H22.9464C22.3941 24.9401 21.9464 24.4924 21.9464 23.9401C21.9464 23.3878 22.3941 22.9401 22.9464 22.9401H26.9159C27.1771 22.9401 27.4276 22.8364 27.6123 22.6517C27.797 22.467 27.9007 22.2165 27.9007 21.9553V13.0238C27.9007 12.7627 27.797 12.5122 27.6123 12.3275C27.4276 12.1428 27.1771 12.0391 26.9159 12.0391H5.08341C4.82223 12.0391 4.57175 12.1428 4.38707 12.3275C4.20239 12.5122 4.09863 12.7627 4.09863 13.0238V21.9553C4.09863 22.2165 4.20239 22.467 4.38707 22.6517C4.57175 22.8364 4.82223 22.9401 5.08341 22.9401H9.05296C9.60524 22.9401 10.053 23.3878 10.053 23.9401C10.053 24.4924 9.60524 24.9401 9.05296 24.9401H5.08341C4.2918 24.9401 3.53261 24.6256 2.97285 24.0659C2.4131 23.5061 2.09863 22.7469 2.09863 21.9553V13.0238C2.09863 12.2322 2.4131 11.473 2.97285 10.9133Z" fill="#101828"/>
<path fill-rule="evenodd" clip-rule="evenodd" d="M8.05273 20.9629C8.05273 20.4106 8.50045 19.9629 9.05273 19.9629H22.9462C23.4984 19.9629 23.9462 20.4106 23.9462 20.9629V27.9096C23.9462 28.438 23.7363 28.9448 23.3626 29.3184C22.989 29.6921 22.4822 29.902 21.9538 29.902H10.0451C9.51671 29.902 9.00994 29.6921 8.63629 29.3184C8.26265 28.9448 8.05273 28.438 8.05273 27.9096V20.9629ZM10.0527 21.9629V27.902H21.9462V21.9629H10.0527Z" fill="#101828"/>
<path fill-rule="evenodd" clip-rule="evenodd" d="M8.63629 2.68317C9.00994 2.30952 9.51671 2.09961 10.0451 2.09961H21.9538C22.4822 2.09961 22.989 2.30952 23.3626 2.68317C23.7363 3.05681 23.9462 3.56359 23.9462 4.092V11.0387C23.9462 11.591 23.4984 12.0387 22.9462 12.0387C22.3939 12.0387 21.9462 11.591 21.9462 11.0387V4.09961H10.0527V11.0387C10.0527 11.591 9.60502 12.0387 9.05273 12.0387C8.50045 12.0387 8.05273 11.591 8.05273 11.0387V4.092C8.05273 3.56358 8.26265 3.05681 8.63629 2.68317Z" fill="#101828"/>
<path fill-rule="evenodd" clip-rule="evenodd" d="M20.9541 16C20.9541 15.4477 21.4018 15 21.9541 15H23.9389C24.4912 15 24.9389 15.4477 24.9389 16C24.9389 16.5523 24.4912 17 23.9389 17H21.9541C21.4018 17 20.9541 16.5523 20.9541 16Z" fill="#101828"/>
</svg>
