<svg width="32" height="32" viewBox="0 0 32 32" fill="none" xmlns="http://www.w3.org/2000/svg">
<path fill-rule="evenodd" clip-rule="evenodd" d="M4.4761 4.42773C3.87121 4.42773 3.38086 4.91809 3.38086 5.52297V13.9039C3.38086 14.5088 3.87121 14.9992 4.4761 14.9992H27.5237C28.1286 14.9992 28.619 14.5088 28.619 13.9039V5.52297C28.619 4.91809 28.1286 4.42773 27.5237 4.42773H4.4761ZM1.38086 5.52297C1.38086 3.81352 2.76664 2.42773 4.4761 2.42773H27.5237C29.2332 2.42773 30.619 3.81352 30.619 5.52297V13.9039C30.619 15.6134 29.2332 16.9992 27.5237 16.9992H4.4761C2.76664 16.9992 1.38086 15.6134 1.38086 13.9039V5.52297Z" fill="#101828"/>
<path d="M8.66676 10.7613C9.24534 10.7613 9.71438 10.2922 9.71438 9.71363C9.71438 9.13505 9.24534 8.66602 8.66676 8.66602C8.08818 8.66602 7.61914 9.13505 7.61914 9.71363C7.61914 10.2922 8.08818 10.7613 8.66676 10.7613Z" fill="#101828"/>
<path fill-rule="evenodd" clip-rule="evenodd" d="M8.66676 9.66602C8.64046 9.66602 8.61914 9.68734 8.61914 9.71364C8.61914 9.73993 8.64046 9.76125 8.66676 9.76125C8.69306 9.76125 8.71438 9.73993 8.71438 9.71364C8.71438 9.68734 8.69306 9.66602 8.66676 9.66602ZM6.61914 9.71364C6.61914 8.58277 7.53589 7.66602 8.66676 7.66602C9.79763 7.66602 10.7144 8.58277 10.7144 9.71364C10.7144 10.8445 9.79763 11.7613 8.66676 11.7613C7.53589 11.7613 6.61914 10.8445 6.61914 9.71364Z" fill="#101828"/>
<path fill-rule="evenodd" clip-rule="evenodd" d="M16.0479 9.71289C16.0479 9.16061 16.4956 8.71289 17.0479 8.71289H24.3812C24.9335 8.71289 25.3812 9.16061 25.3812 9.71289C25.3812 10.2652 24.9335 10.7129 24.3812 10.7129H17.0479C16.4956 10.7129 16.0479 10.2652 16.0479 9.71289Z" fill="#101828"/>
<path fill-rule="evenodd" clip-rule="evenodd" d="M2.28743 15.9066C2.8679 15.3261 3.65519 15 4.4761 15C5.02838 15 5.4761 15.4477 5.4761 16C5.4761 16.5523 5.02838 17 4.4761 17C4.18562 17 3.90704 17.1154 3.70165 17.3208C3.49625 17.5262 3.38086 17.8048 3.38086 18.0952V26.4762C3.38086 26.7667 3.49625 27.0452 3.70165 27.2506C3.90704 27.456 4.18562 27.5714 4.4761 27.5714H27.5237C27.8142 27.5714 28.0928 27.456 28.2982 27.2506C28.5036 27.0452 28.619 26.7667 28.619 26.4762V18.0952C28.619 17.8048 28.5036 17.5262 28.2982 17.3208C28.0928 17.1154 27.8142 17 27.5237 17C26.9714 17 26.5237 16.5523 26.5237 16C26.5237 15.4477 26.9714 15 27.5237 15C28.3446 15 29.1319 15.3261 29.7124 15.9066C30.2929 16.487 30.619 17.2743 30.619 18.0952V26.4762C30.619 27.2971 30.2929 28.0844 29.7124 28.6649C29.1319 29.2453 28.3446 29.5714 27.5237 29.5714H4.4761C3.65519 29.5714 2.8679 29.2453 2.28743 28.6649C1.70696 28.0844 1.38086 27.2971 1.38086 26.4762V18.0952C1.38086 17.2743 1.70696 16.487 2.28743 15.9066Z" fill="#101828"/>
<path d="M8.66676 23.3316C9.24534 23.3316 9.71438 22.8625 9.71438 22.2839C9.71438 21.7054 9.24534 21.2363 8.66676 21.2363C8.08818 21.2363 7.61914 21.7054 7.61914 22.2839C7.61914 22.8625 8.08818 23.3316 8.66676 23.3316Z" fill="#101828"/>
<path fill-rule="evenodd" clip-rule="evenodd" d="M8.66676 22.2363C8.64046 22.2363 8.61914 22.2576 8.61914 22.2839C8.61914 22.3102 8.64046 22.3316 8.66676 22.3316C8.69306 22.3316 8.71438 22.3102 8.71438 22.2839C8.71438 22.2576 8.69306 22.2363 8.66676 22.2363ZM6.61914 22.2839C6.61914 21.1531 7.53589 20.2363 8.66676 20.2363C9.79763 20.2363 10.7144 21.1531 10.7144 22.2839C10.7144 23.4148 9.79763 24.3316 8.66676 24.3316C7.53589 24.3316 6.61914 23.4148 6.61914 22.2839Z" fill="#101828"/>
<path fill-rule="evenodd" clip-rule="evenodd" d="M16.0479 22.2852C16.0479 21.7329 16.4956 21.2852 17.0479 21.2852H24.3812C24.9335 21.2852 25.3812 21.7329 25.3812 22.2852C25.3812 22.8374 24.9335 23.2852 24.3812 23.2852H17.0479C16.4956 23.2852 16.0479 22.8374 16.0479 22.2852Z" fill="#101828"/>
</svg>
