<svg width="24" height="24" viewBox="0 0 24 24" fill="none" xmlns="http://www.w3.org/2000/svg">
<g clip-path="url(#clip0_46_379)">
<path fill-rule="evenodd" clip-rule="evenodd" d="M12 3.46429C9.85007 3.46429 8.10718 5.20719 8.10718 7.35715C8.10718 9.50712 9.85007 11.25 12 11.25C14.15 11.25 15.8929 9.50712 15.8929 7.35715C15.8929 5.20719 14.15 3.46429 12 3.46429ZM6.60718 7.35715C6.60718 4.37876 9.02164 1.96429 12 1.96429C14.9784 1.96429 17.3929 4.37876 17.3929 7.35715C17.3929 10.3355 14.9784 12.75 12 12.75C9.02164 12.75 6.60718 10.3355 6.60718 7.35715Z" fill="#74818E"/>
<path fill-rule="evenodd" clip-rule="evenodd" d="M6.09405 16.0207C7.8091 14.7697 9.87714 14.0955 12 14.0955C14.1229 14.0955 16.191 14.7697 17.906 16.0207C19.6211 17.2718 20.8945 19.0352 21.5428 21.0567C21.6159 21.2848 21.5757 21.5342 21.4345 21.7277C21.2933 21.9213 21.0682 22.0357 20.8286 22.0357H3.17145C2.93188 22.0357 2.70673 21.9213 2.56554 21.7277C2.42435 21.5342 2.38412 21.2848 2.45728 21.0567C3.10554 19.0352 4.37899 17.2718 6.09405 16.0207ZM12 15.5955C10.1949 15.5955 8.43639 16.1688 6.97805 17.2326C5.80411 18.0889 4.8735 19.2276 4.26763 20.5357H19.7324C19.1266 19.2276 18.1959 18.0889 17.022 17.2326C15.5637 16.1688 13.8052 15.5955 12 15.5955Z" fill="#74818E"/>
</g>
<defs>
<clipPath id="clip0_46_379">
<rect width="24" height="24" fill="white"/>
</clipPath>
</defs>
</svg>
