<svg width="33" height="33" viewBox="0 0 33 33" fill="none" xmlns="http://www.w3.org/2000/svg">
<path fill-rule="evenodd" clip-rule="evenodd" d="M3.63985 11.4126C4.1996 10.8528 4.95879 10.5383 5.7504 10.5383H27.5829C28.3745 10.5383 29.1337 10.8528 29.6935 11.4126C30.2532 11.9723 30.5677 12.7315 30.5677 13.5231V22.4546C30.5677 23.2462 30.2532 24.0054 29.6935 24.5652C29.1337 25.1249 28.3745 25.4394 27.5829 25.4394H23.6134C23.0611 25.4394 22.6134 24.9917 22.6134 24.4394C22.6134 23.8871 23.0611 23.4394 23.6134 23.4394H27.5829C27.8441 23.4394 28.0946 23.3356 28.2793 23.1509C28.464 22.9663 28.5677 22.7158 28.5677 22.4546V13.5231C28.5677 13.2619 28.464 13.0114 28.2793 12.8268C28.0946 12.6421 27.8441 12.5383 27.5829 12.5383H5.7504C5.48922 12.5383 5.23874 12.6421 5.05406 12.8268C4.86938 13.0114 4.76562 13.2619 4.76562 13.5231V22.4546C4.76562 22.7158 4.86938 22.9663 5.05406 23.1509C5.23874 23.3356 5.48922 23.4394 5.7504 23.4394H9.71995C10.2722 23.4394 10.72 23.8871 10.72 24.4394C10.72 24.9917 10.2722 25.4394 9.71995 25.4394H5.7504C4.95879 25.4394 4.1996 25.1249 3.63985 24.5652C3.08009 24.0054 2.76562 23.2462 2.76562 22.4546V13.5231C2.76562 12.7315 3.08009 11.9723 3.63985 11.4126Z" fill="white"/>
<path fill-rule="evenodd" clip-rule="evenodd" d="M8.71985 21.4622C8.71985 20.9099 9.16756 20.4622 9.71985 20.4622H23.6133C24.1656 20.4622 24.6133 20.9099 24.6133 21.4622V28.4089C24.6133 28.9373 24.4034 29.4441 24.0297 29.8177C23.6561 30.1914 23.1493 30.4013 22.6209 30.4013H10.7122C10.1838 30.4013 9.67705 30.1914 9.30341 29.8177C8.92976 29.4441 8.71985 28.9373 8.71985 28.4089V21.4622ZM10.7198 22.4622V28.4013H22.6133V22.4622H10.7198Z" fill="white"/>
<path fill-rule="evenodd" clip-rule="evenodd" d="M9.30341 3.18243C9.67705 2.80879 10.1838 2.59888 10.7122 2.59888H22.6209C23.1493 2.59888 23.6561 2.80879 24.0297 3.18243C24.4034 3.55608 24.6133 4.06285 24.6133 4.59126V11.538C24.6133 12.0903 24.1656 12.538 23.6133 12.538C23.061 12.538 22.6133 12.0903 22.6133 11.538V4.59888H10.7198V11.538C10.7198 12.0903 10.2721 12.538 9.71985 12.538C9.16756 12.538 8.71985 12.0903 8.71985 11.538V4.59126C8.71985 4.06285 8.92976 3.55608 9.30341 3.18243Z" fill="white"/>
<path fill-rule="evenodd" clip-rule="evenodd" d="M21.6215 16.5C21.6215 15.9477 22.0692 15.5 22.6215 15.5H24.6062C25.1585 15.5 25.6062 15.9477 25.6062 16.5C25.6062 17.0523 25.1585 17.5 24.6062 17.5H22.6215C22.0692 17.5 21.6215 17.0523 21.6215 16.5Z" fill="white"/>
</svg>
