<svg width="33" height="33" viewBox="0 0 33 33" fill="none" xmlns="http://www.w3.org/2000/svg">
<path fill-rule="evenodd" clip-rule="evenodd" d="M4.80935 4.92871C4.20447 4.92871 3.71411 5.41907 3.71411 6.02395V14.4049C3.71411 15.0098 4.20447 15.5001 4.80935 15.5001H27.857C28.4619 15.5001 28.9522 15.0098 28.9522 14.4049V6.02395C28.9522 5.41907 28.4619 4.92871 27.857 4.92871H4.80935ZM1.71411 6.02395C1.71411 4.3145 3.0999 2.92871 4.80935 2.92871H27.857C29.5664 2.92871 30.9522 4.3145 30.9522 6.02395V14.4049C30.9522 16.1144 29.5664 17.5001 27.857 17.5001H4.80935C3.0999 17.5001 1.71411 16.1144 1.71411 14.4049V6.02395Z" fill="white"/>
<path d="M8.99977 11.2622C9.57835 11.2622 10.0474 10.7932 10.0474 10.2146C10.0474 9.63603 9.57835 9.16699 8.99977 9.16699C8.42118 9.16699 7.95215 9.63603 7.95215 10.2146C7.95215 10.7932 8.42118 11.2622 8.99977 11.2622Z" fill="white"/>
<path fill-rule="evenodd" clip-rule="evenodd" d="M8.99977 10.167C8.97347 10.167 8.95215 10.1883 8.95215 10.2146C8.95215 10.2409 8.97347 10.2622 8.99977 10.2622C9.02607 10.2622 9.04739 10.2409 9.04739 10.2146C9.04739 10.1883 9.02607 10.167 8.99977 10.167ZM6.95215 10.2146C6.95215 9.08374 7.8689 8.16699 8.99977 8.16699C10.1306 8.16699 11.0474 9.08374 11.0474 10.2146C11.0474 11.3455 10.1306 12.2622 8.99977 12.2622C7.8689 12.2622 6.95215 11.3455 6.95215 10.2146Z" fill="white"/>
<path fill-rule="evenodd" clip-rule="evenodd" d="M16.3809 10.2144C16.3809 9.66207 16.8286 9.21436 17.3809 9.21436H24.7142C25.2665 9.21436 25.7142 9.66207 25.7142 10.2144C25.7142 10.7666 25.2665 11.2144 24.7142 11.2144H17.3809C16.8286 11.2144 16.3809 10.7666 16.3809 10.2144Z" fill="white"/>
<path fill-rule="evenodd" clip-rule="evenodd" d="M2.62069 16.4068C3.20115 15.8263 3.98844 15.5002 4.80935 15.5002C5.36163 15.5002 5.80935 15.948 5.80935 16.5002C5.80935 17.0525 5.36163 17.5002 4.80935 17.5002C4.51887 17.5002 4.2403 17.6156 4.0349 17.821C3.8295 18.0264 3.71411 18.305 3.71411 18.5955V26.9764C3.71411 27.2669 3.8295 27.5455 4.0349 27.7509C4.2403 27.9563 4.51887 28.0717 4.80935 28.0717H27.857C28.1474 28.0717 28.426 27.9563 28.6314 27.7509C28.8368 27.5455 28.9522 27.2669 28.9522 26.9764V18.5955C28.9522 18.305 28.8368 18.0264 28.6314 17.821C28.426 17.6156 28.1474 17.5002 27.857 17.5002C27.3047 17.5002 26.857 17.0525 26.857 16.5002C26.857 15.948 27.3047 15.5002 27.857 15.5002C28.6779 15.5002 29.4652 15.8263 30.0456 16.4068C30.6261 16.9873 30.9522 17.7746 30.9522 18.5955V26.9764C30.9522 27.7973 30.6261 28.5846 30.0456 29.1651C29.4652 29.7456 28.6779 30.0717 27.857 30.0717H4.80935C3.98844 30.0717 3.20115 29.7456 2.62069 29.1651C2.04022 28.5846 1.71411 27.7973 1.71411 26.9764V18.5955C1.71411 17.7746 2.04022 16.9873 2.62069 16.4068Z" fill="white"/>
<path d="M8.99977 23.8335C9.57835 23.8335 10.0474 23.3645 10.0474 22.7859C10.0474 22.2073 9.57835 21.7383 8.99977 21.7383C8.42118 21.7383 7.95215 22.2073 7.95215 22.7859C7.95215 23.3645 8.42118 23.8335 8.99977 23.8335Z" fill="white"/>
<path fill-rule="evenodd" clip-rule="evenodd" d="M8.99977 22.7383C8.97347 22.7383 8.95215 22.7596 8.95215 22.7859C8.95215 22.8122 8.97347 22.8335 8.99977 22.8335C9.02607 22.8335 9.04739 22.8122 9.04739 22.7859C9.04739 22.7596 9.02607 22.7383 8.99977 22.7383ZM6.95215 22.7859C6.95215 21.655 7.8689 20.7383 8.99977 20.7383C10.1306 20.7383 11.0474 21.655 11.0474 22.7859C11.0474 23.9168 10.1306 24.8335 8.99977 24.8335C7.8689 24.8335 6.95215 23.9168 6.95215 22.7859Z" fill="white"/>
<path fill-rule="evenodd" clip-rule="evenodd" d="M16.3809 22.7859C16.3809 22.2336 16.8286 21.7859 17.3809 21.7859H24.7142C25.2665 21.7859 25.7142 22.2336 25.7142 22.7859C25.7142 23.3382 25.2665 23.7859 24.7142 23.7859H17.3809C16.8286 23.7859 16.3809 23.3382 16.3809 22.7859Z" fill="white"/>
</svg>
