<svg width="32" height="33" viewBox="0 0 32 33" fill="none" xmlns="http://www.w3.org/2000/svg">
<path fill-rule="evenodd" clip-rule="evenodd" d="M2.8572 4.90479C2.8046 4.90479 2.76196 4.94742 2.76196 5.00002V22.5238C2.76196 22.5764 2.8046 22.6191 2.8572 22.6191H29.1429C29.1955 22.6191 29.2382 22.5764 29.2382 22.5238V5.00002C29.2382 4.94742 29.1955 4.90479 29.1429 4.90479H2.8572ZM0.761963 5.00002C0.761963 3.84286 1.70003 2.90479 2.8572 2.90479H29.1429C30.3001 2.90479 31.2382 3.84286 31.2382 5.00002V22.5238C31.2382 23.681 30.3001 24.6191 29.1429 24.6191H2.8572C1.70003 24.6191 0.761963 23.681 0.761963 22.5238V5.00002Z" fill="white"/>
<path fill-rule="evenodd" clip-rule="evenodd" d="M14.181 22.6907C14.6938 22.8958 14.9432 23.4778 14.7381 23.9906L12.5476 29.4667C12.3425 29.9795 11.7606 30.2289 11.2478 30.0238C10.735 29.8187 10.4856 29.2367 10.6907 28.724L12.8812 23.2478C13.0863 22.735 13.6682 22.4856 14.181 22.6907Z" fill="white"/>
<path fill-rule="evenodd" clip-rule="evenodd" d="M17.8192 22.6907C18.332 22.4856 18.9139 22.735 19.119 23.2478L21.3095 28.724C21.5146 29.2367 21.2652 29.8187 20.7524 30.0238C20.2397 30.2289 19.6577 29.9795 19.4526 29.4667L17.2621 23.9906C17.057 23.4778 17.3064 22.8958 17.8192 22.6907Z" fill="white"/>
<path fill-rule="evenodd" clip-rule="evenodd" d="M8.42859 29.0952C8.42859 28.5429 8.8763 28.0952 9.42859 28.0952H22.5714C23.1237 28.0952 23.5714 28.5429 23.5714 29.0952C23.5714 29.6475 23.1237 30.0952 22.5714 30.0952H9.42859C8.8763 30.0952 8.42859 29.6475 8.42859 29.0952Z" fill="white"/>
</svg>
