<svg width="33" height="33" viewBox="0 0 33 33" fill="none" xmlns="http://www.w3.org/2000/svg">
<path fill-rule="evenodd" clip-rule="evenodd" d="M16 3.8335C9.37258 3.8335 4 9.20608 4 15.8335C4 22.4609 9.37258 27.8335 16 27.8335C22.6274 27.8335 28 22.4609 28 15.8335C28 9.20608 22.6274 3.8335 16 3.8335ZM2 15.8335C2 8.10151 8.26801 1.8335 16 1.8335C23.732 1.8335 30 8.10151 30 15.8335C30 23.5655 23.732 29.8335 16 29.8335C8.26801 29.8335 2 23.5655 2 15.8335Z" fill="white"/>
<path fill-rule="evenodd" clip-rule="evenodd" d="M12.5152 9.95885C12.8332 9.78263 13.2217 9.79283 13.53 9.9855L21.53 14.9855C21.8224 15.1682 22 15.4887 22 15.8335C22 16.1783 21.8224 16.4988 21.53 16.6815L13.53 21.6815C13.2217 21.8742 12.8332 21.8844 12.5152 21.7081C12.1973 21.5319 12 21.197 12 20.8335V10.8335C12 10.47 12.1973 10.1351 12.5152 9.95885ZM14 12.6377V19.0292L19.1132 15.8335L14 12.6377Z" fill="white"/>
</svg>
