<svg width="32" height="32" viewBox="0 0 32 32" fill="none" xmlns="http://www.w3.org/2000/svg">
<path fill-rule="evenodd" clip-rule="evenodd" d="M15.333 3.33398C8.70559 3.33398 3.33301 8.70657 3.33301 15.334C3.33301 21.9614 8.70559 27.334 15.333 27.334C21.9604 27.334 27.333 21.9614 27.333 15.334C27.333 8.70657 21.9604 3.33398 15.333 3.33398ZM1.33301 15.334C1.33301 7.602 7.60102 1.33398 15.333 1.33398C23.065 1.33398 29.333 7.602 29.333 15.334C29.333 23.066 23.065 29.334 15.333 29.334C7.60102 29.334 1.33301 23.066 1.33301 15.334Z" fill="#101828"/>
<path fill-rule="evenodd" clip-rule="evenodd" d="M11.8482 9.45934C12.1662 9.28312 12.5547 9.29332 12.863 9.48599L20.863 14.486C21.1554 14.6687 21.333 14.9892 21.333 15.334C21.333 15.6788 21.1554 15.9992 20.863 16.182L12.863 21.182C12.5547 21.3747 12.1662 21.3849 11.8482 21.2086C11.5303 21.0324 11.333 20.6975 11.333 20.334V10.334C11.333 9.97046 11.5303 9.63557 11.8482 9.45934ZM13.333 12.1382V18.5297L18.4462 15.334L13.333 12.1382Z" fill="#101828"/>
</svg>
