<svg width="1920" height="790" viewBox="0 0 1920 790" fill="none" xmlns="http://www.w3.org/2000/svg">
<path d="M-11.1134 -28.4C-61.2564 3.7271 -104.462 27.7725 -160.358 36.1146C-221.088 45.1779 -277.099 47.1249 -297.352 136.062C-314.587 211.746 -298.218 300.03 -327.575 371.129C-337.314 394.715 -352.699 413.745 -363.18 436.79C-382.4 479.05 -391.41 525.022 -395.834 573.421C-401.609 636.615 -401.121 707.578 -359.065 751.127C-337.032 773.941 -322.041 783.135 -297.182 752.099C-278.632 728.94 -264.77 699.925 -251.69 671.179C-218.732 598.748 -162.233 435.551 -132.668 363.859C-100.591 286.074 -72.5594 219.709 -22.6203 160.1C1.47147 131.343 59.824 87.4463 89.5997 69.1435C162.753 24.177 225.88 18.6549 303.826 38.965C366.102 55.1917 425.885 64.6761 489.374 54.556C537.544 46.8776 571.66 23.6645 614.825 -0.760552C668.046 -30.8751 733.656 -44.2388 789.766 -18.0755C870.666 19.6469 792.167 104.707 754.103 137.794C693.529 190.446 625.952 210.211 555.008 225.363C452.479 247.262 348.73 260.629 246.554 285.147C184.493 300.038 114.461 319.934 66.0892 376.429C39.8633 407.06 33.3203 428.302 19.8422 470.028C-0.681843 533.566 -15.0699 597.971 -51.9497 650.366C-123.204 751.595 -259.939 738.281 -285.572 892.32C-297.117 961.697 -293.385 1033.99 -304.154 1103.67C-309.53 1138.46 -315.137 1157.29 -324.968 1189.54C-332.416 1213.98 -348.662 1245.77 -340.566 1273.7C-320.553 1342.73 -240.813 1320.51 -203.957 1297.97C-168.192 1276.1 -145.922 1250.92 -124.054 1209.28C-103.87 1170.85 -100.282 1125.82 -85.7927 1084.46C-16.5439 886.772 188.714 864.346 329.059 808.679C426.559 770.007 509.464 718.873 587.157 632.098C649.308 562.683 751.359 434.148 805.637 364.653C892.652 253.245 975.457 143.9 1047.4 15.973C1069.68 -23.6314 1079.02 -48.2556 1111.95 -75.1779C1139.28 -97.5223 1179.94 -112.52 1211.33 -119.173C1266.21 -130.804 1338 -127.947 1386.83 -87.6893C1423.88 -57.1449 1428.65 -1.83277 1411.32 47.8231C1394.77 95.2059 1369.78 126.913 1343.64 166.03C1287.7 249.723 1239.85 335.384 1190.42 425.558C1148.03 502.901 1118.98 555.871 1063.68 619.679C1012.03 679.275 955.606 722.649 897.208 769.625C816.734 834.361 829.891 819.429 756.052 886.916C703.95 934.537 655.139 987.997 598.515 1026.89C540.364 1066.83 475.977 1082.25 416.081 1116.07C367.604 1143.44 340.926 1181.71 317.25 1241.4C297.197 1291.95 273.218 1328.71 245.384 1372.09C234.445 1389.14 218.829 1410.36 219.892 1435.59C222.408 1495.36 299.117 1493.51 326.61 1491.49C443.455 1482.87 556.436 1424.19 656.053 1348.37C699.558 1315.25 731.316 1282.43 776.416 1253.15C835.374 1214.86 895.352 1200.7 959.78 1187.62C1037.35 1171.88 1111.08 1155.11 1172.86 1087.52C1202.54 1055.05 1221.08 1022.53 1245.99 984.077C1291.08 914.495 1340.36 849.865 1385.76 780.81C1428.97 715.086 1460.05 662.324 1487.34 582.161C1512.27 508.941 1525.99 427.556 1536.51 349.116C1545.88 279.31 1544.09 203.991 1558.02 135.217C1566.34 94.1299 1601.78 -12.4315 1629.94 -30.3705C1678.85 -61.5307 1677.93 -66.9826 1714.25 -70.7741C1758.21 -75.3647 1806 -43.8325 1821.86 -35.6869C1845.02 -23.7984 1853.81 10.7963 1857.49 38.9291C1874.72 170.852 1797.42 282.337 1780.06 407.527C1768.35 492 1773.42 578.906 1757.77 662.837C1733.07 795.402 1669.75 875.46 1586.91 953.293C1560.72 977.906 1527.59 1005.79 1502.07 1033.13C1471.52 1065.87 1484.4 1063.44 1443.58 1092.14C1314.07 1183.18 1169.24 1231.44 1038.12 1318.23C1006.89 1338.9 960.025 1375.23 981.676 1430.47C1013.08 1510.59 1114.1 1482.01 1160.04 1445.67C1194.82 1418.16 1205.52 1389.38 1237.66 1357.42C1276.1 1319.18 1308.31 1299.55 1355.83 1282.91C1475.18 1252.07 1422.95 1268.76 1497.77 1259.84C1609.49 1225.96 1659.14 1042.71 1700.92 928.03C1774.05 727.289 1832.35 522.182 1871.5 306.318C1876.78 277.218 1889.19 203.247 1898.44 169.926C1909.04 131.722 1923.42 121.935 1954.72 126.137C1998.89 132.068 2045.33 156.009 2055.08 218.612C2060.12 250.946 2055.41 301.482 2051.38 331.866C2040.03 417.457 2017.39 499.121 2012.76 586.409C2004.61 739.898 2049.18 893.758 2031.28 1046.24C2021.92 1126.06 2005.93 1159.35 1958.92 1209.04C1913.42 1257.14 1854.01 1275.39 1809.93 1325.95C1776.58 1364.18 1764.53 1419.83 1764.93 1475.73C1764.98 1483.63 1766.86 1524.33 1774.34 1533.15C1793.82 1556.09 1853.14 1508.92 1866.6 1500.81C1889.89 1486.78 1914.53 1473.4 1934.28 1451.26C1950.53 1433.05 1970.94 1394.52 1983.38 1374.55C2012.89 1327.22 2042.47 1284.02 2081.57 1250.71" stroke="#FCEBF0" stroke-opacity="0.4" stroke-width="3" stroke-linecap="round"/>
</svg>
