<svg width="196" height="41" viewBox="0 0 196 41" fill="none" xmlns="http://www.w3.org/2000/svg">
<path d="M29.6582 40.9229C28.0918 40.9098 26.6583 40.4958 25.4252 39.5177C23.7935 38.2236 23.1704 36.5287 23.4144 34.459C23.654 32.4199 23.8065 30.3699 23.9982 28.3242C24.2052 26.1217 24.4165 23.9213 24.6235 21.7188C24.7912 19.9367 24.9503 18.1569 25.118 16.3748C25.3054 14.3683 25.4993 12.3619 25.6866 10.3576C25.8522 8.58641 26.0156 6.81524 26.179 5.04407C26.2182 4.63232 26.2138 4.21186 26.3097 3.81536C26.3859 3.50164 26.5406 3.18357 26.7432 2.93304C27.3075 2.23372 28.0809 1.81326 28.9044 1.49736C30.181 1.00719 31.4925 0.743581 32.8541 1.06165C33.1613 1.13354 33.4815 1.27297 33.7168 1.47558C33.9151 1.64333 34.0937 1.93744 34.1155 2.19015C34.268 3.83279 34.3726 5.47978 34.4967 7.12678C34.6231 8.80209 34.7582 10.4752 34.8845 12.1505C35.0131 13.8259 35.1351 15.5012 35.2636 17.1765C35.4335 19.3899 35.6078 21.6033 35.7777 23.8189C35.9063 25.5051 36.0261 27.1914 36.1546 28.8776C36.3006 30.8078 36.4727 32.7358 36.5969 34.6682C36.6644 35.7357 36.3768 36.7378 35.8082 37.6419C34.6384 39.5024 32.9042 40.4937 30.7714 40.8379C30.4054 40.8902 30.0285 40.8924 29.6582 40.9229Z" fill="url(#paint0_linear_3001_10689)"/>
<path d="M11.2571 40.9165C10.0742 40.9252 9.01103 40.6006 8.17446 39.7423C7.17885 38.7227 6.89782 37.4613 7.20282 36.1106C7.48821 34.8492 7.89996 33.614 8.26378 32.37C8.63631 31.0977 9.05024 29.8363 9.3901 28.5553C9.85195 26.8125 10.9282 25.5707 12.4401 24.6753C13.7167 23.9194 15.0892 23.5534 16.5881 23.7603C18.1871 23.9804 19.7383 25.1938 19.3222 27.5532C18.8756 30.0782 18.5009 32.6162 18.0869 35.1455C17.8407 36.64 17.087 37.8643 15.9955 38.8861C14.6644 40.1366 13.1067 40.8729 11.2571 40.9165Z" fill="url(#paint1_linear_3001_10689)"/>
<path d="M18.957 11.6537C19.5082 11.6472 20.0376 11.7212 20.5387 11.9587C21.3164 12.3269 21.6497 12.9216 21.5212 13.7713C21.2663 15.4313 21.0027 17.0914 20.7282 18.7493C20.6106 19.4704 20.2489 20.0826 19.7544 20.6033C18.2926 22.137 16.5062 22.9278 14.3755 22.8101C13.9093 22.784 13.4257 22.6293 13.0008 22.4245C12.0662 21.9736 11.6567 21.0499 11.9399 20.0521C12.4213 18.3419 12.9093 16.6296 13.4692 14.9433C13.6326 14.4532 13.9812 13.9804 14.3537 13.6101C15.6173 12.3509 17.1793 11.7321 18.957 11.6537Z" fill="url(#paint2_linear_3001_10689)"/>
<path d="M2.70301 24.2264C2.41108 24.1872 2.11262 24.1763 1.83158 24.1044C0.840337 23.8473 0.354515 23.0369 0.5898 22.0304C0.648621 21.7755 0.746659 21.5228 0.857766 21.2831C1.48519 19.9172 2.14747 18.5665 2.7444 17.1874C3.20408 16.1265 3.92083 15.3139 4.87068 14.6886C5.8445 14.0459 6.89675 13.6015 8.07971 13.547C8.38906 13.5318 8.71367 13.5536 9.01213 13.6298C9.99031 13.8804 10.3737 14.6145 10.0426 15.5709C9.65263 16.7038 9.24742 17.8323 8.84874 18.963C8.76378 19.2048 8.66356 19.4401 8.59603 19.6862C8.0601 21.6186 6.71593 22.8168 4.97961 23.6447C4.26504 23.9867 3.50908 24.1937 2.70301 24.2264Z" fill="url(#paint3_linear_3001_10689)"/>
<path d="M16.9516 11.2356C16.6923 11.1746 16.2305 11.1158 15.8078 10.9524C15.1259 10.6888 14.8776 10.1223 15.0802 9.42303C15.407 8.29235 15.7381 7.1595 16.0867 6.03536C16.3067 5.33168 16.8448 4.87419 17.4265 4.47769C18.5049 3.74569 19.6987 3.30779 21.0059 3.2664C21.4547 3.25333 21.9274 3.34265 22.3566 3.48426C22.886 3.65854 23.0733 4.04197 22.9884 4.59969C22.8141 5.75433 22.6354 6.90896 22.435 8.06143C22.337 8.62785 21.9841 9.06356 21.5701 9.4361C20.3196 10.569 18.8317 11.131 16.9516 11.2356Z" fill="url(#paint4_linear_3001_10689)"/>
<path d="M49.4314 20.9753C49.2094 20.9753 49.0184 20.8998 48.8541 20.7488C48.6898 20.5978 48.6055 20.4069 48.6055 20.1716V5.65137C48.6055 5.41603 48.6898 5.2251 48.8541 5.07412C49.0184 4.92315 49.2094 4.84766 49.4314 4.84766C49.6667 4.84766 49.8532 4.92315 49.9998 5.07412C50.1463 5.2251 50.2173 5.42047 50.2173 5.65137V18.3332L60.5236 5.13628C60.6745 4.94534 60.8788 4.84766 61.1408 4.84766C61.3761 4.84766 61.5671 4.92315 61.718 5.07412C61.869 5.2251 61.9445 5.42047 61.9445 5.65137V20.1716C61.9445 20.4069 61.869 20.5978 61.718 20.7488C61.5671 20.8998 61.3761 20.9753 61.1408 20.9753C60.9054 20.9753 60.7145 20.8998 60.5635 20.7488C60.4126 20.5978 60.3371 20.4069 60.3371 20.1716V7.50747L50.0308 20.7044C49.9642 20.7888 49.871 20.8509 49.7644 20.8998C49.6534 20.9486 49.5424 20.9753 49.4314 20.9753Z" fill="#101828"/>
<path d="M67.7929 6.30865C67.5708 6.30865 67.3932 6.2376 67.2556 6.09995C67.1179 5.96229 67.0469 5.78911 67.0469 5.58486C67.0469 5.36283 67.1135 5.18522 67.2556 5.04757C67.3932 4.90991 67.5708 4.83887 67.7929 4.83887H79.2136C79.4357 4.83887 79.6133 4.90991 79.7509 5.04757C79.8886 5.18522 79.9596 5.36283 79.9596 5.58486C79.9596 5.79355 79.8886 5.96229 79.7509 6.09995C79.6133 6.2376 79.4357 6.30865 79.2136 6.30865H67.7929ZM73.4944 20.9754C73.2724 20.9754 73.0859 20.8954 72.926 20.7356C72.7661 20.5757 72.6862 20.3892 72.6862 20.1672V4.8433H74.2981V20.1672C74.2981 20.3892 74.2226 20.5757 74.0716 20.7356C73.9207 20.8954 73.7297 20.9754 73.4944 20.9754Z" fill="#101828"/>
<path d="M92.9505 20.9753C92.6352 20.9753 92.4043 20.8466 92.2666 20.5846C92.129 20.3226 92.1157 20.0695 92.2267 19.8208L98.3012 5.40276C98.4522 5.02976 98.7141 4.84326 99.0871 4.84326C99.4424 4.84326 99.6999 5.02976 99.8509 5.40276L105.943 19.8386C106.067 20.1006 106.05 20.3537 105.89 20.6023C105.73 20.851 105.508 20.9753 105.219 20.9753C105.055 20.9753 104.909 20.9354 104.775 20.851C104.647 20.7666 104.536 20.6423 104.456 20.478L98.7763 6.69937H99.4157L93.6965 20.478C93.6254 20.6423 93.5277 20.7666 93.399 20.851C93.2657 20.9309 93.1148 20.9753 92.9505 20.9753ZM94.3137 17.1299L94.9353 15.7445H103.319L103.941 17.1299H94.3137Z" fill="#101828"/>
<path d="M110.217 20.9753C109.901 20.9753 109.67 20.8466 109.524 20.5846C109.377 20.3226 109.369 20.0695 109.493 19.8208L115.567 5.40276C115.718 5.02976 115.971 4.84326 116.331 4.84326C116.704 4.84326 116.966 5.02976 117.117 5.40276L123.209 19.8386C123.334 20.1006 123.32 20.3537 123.169 20.6023C123.018 20.851 122.792 20.9753 122.49 20.9753C122.326 20.9753 122.175 20.9354 122.046 20.851C121.913 20.7666 121.815 20.6423 121.748 20.478L116.047 6.69937H116.709L110.967 20.478C110.896 20.6423 110.798 20.7666 110.67 20.851C110.532 20.9309 110.385 20.9753 110.217 20.9753Z" fill="#101828"/>
<path d="M129.305 20.9754C129.043 20.9754 128.825 20.9043 128.652 20.7578C128.479 20.6113 128.395 20.4159 128.395 20.1672V5.56266C128.395 5.35396 128.47 5.18522 128.621 5.04757C128.772 4.90991 128.963 4.83887 129.198 4.83887C129.434 4.83887 129.625 4.90991 129.775 5.04757C129.926 5.18522 130.002 5.3584 130.002 5.56266V11.2819H134.691C135.655 11.2819 136.512 11.4906 137.262 11.9036C138.012 12.3165 138.603 12.8849 139.029 13.6087C139.456 14.3325 139.669 15.154 139.669 16.0776C139.669 17.0411 139.456 17.8937 139.029 18.6308C138.603 19.3679 138.012 19.9407 137.262 20.3537C136.512 20.7667 135.655 20.9754 134.691 20.9754H129.305ZM130.006 19.5056H134.695C135.357 19.5056 135.943 19.359 136.449 19.0615C136.96 18.764 137.36 18.3555 137.648 17.8315C137.937 17.3076 138.084 16.7037 138.084 16.0154C138.084 15.3405 137.937 14.7543 137.648 14.2614C137.36 13.7641 136.96 13.3822 136.449 13.1158C135.939 12.8449 135.357 12.7117 134.695 12.7117H130.006V19.5056Z" fill="#101828"/>
<path d="M145.783 20.9753C145.41 20.9753 145.162 20.8509 145.028 20.6023C144.9 20.3536 144.935 20.065 145.144 19.7364L148.945 13.7862L150.557 14.2214L146.489 20.5623C146.405 20.7 146.312 20.8021 146.201 20.8731C146.09 20.9397 145.952 20.9753 145.783 20.9753ZM154.913 20.9753C154.677 20.9753 154.486 20.8998 154.335 20.7488C154.184 20.5978 154.109 20.4069 154.109 20.1716V14.6565H149.935V14.4478C149.038 14.4478 148.212 14.248 147.457 13.8484C146.698 13.4488 146.094 12.9026 145.641 12.2054C145.188 11.5083 144.957 10.7135 144.957 9.82094C144.957 8.84404 145.179 7.9826 145.628 7.24105C146.076 6.49506 146.689 5.91336 147.475 5.48708C148.261 5.0608 149.162 4.84766 150.179 4.84766H154.908C155.144 4.84766 155.335 4.92315 155.485 5.07412C155.636 5.2251 155.712 5.42047 155.712 5.65137V20.1716C155.712 20.4069 155.636 20.5978 155.485 20.7488C155.339 20.8998 155.148 20.9753 154.913 20.9753ZM150.184 13.1468H154.109V6.39293H150.184C149.469 6.39293 148.838 6.53058 148.292 6.80588C147.75 7.08119 147.32 7.47639 147.013 7.99148C146.707 8.50657 146.547 9.11935 146.547 9.82094C146.547 10.4959 146.702 11.082 147.013 11.5749C147.324 12.0722 147.75 12.4585 148.292 12.7339C148.838 13.0092 149.469 13.1468 150.184 13.1468Z" fill="#101828"/>
<path d="M163.382 20.9753C163.146 20.9753 162.956 20.8998 162.805 20.7488C162.654 20.5978 162.578 20.4069 162.578 20.1716V5.65137C162.578 5.41603 162.654 5.2251 162.805 5.07412C162.956 4.92315 163.146 4.84766 163.382 4.84766C163.617 4.84766 163.808 4.92315 163.959 5.07412C164.11 5.2251 164.186 5.42047 164.186 5.65137V12.0944H174.265V5.65137C174.265 5.41603 174.341 5.2251 174.492 5.07412C174.643 4.92315 174.834 4.84766 175.069 4.84766C175.304 4.84766 175.495 4.92315 175.646 5.07412C175.797 5.2251 175.873 5.42047 175.873 5.65137V20.1716C175.873 20.4069 175.797 20.5978 175.646 20.7488C175.495 20.8998 175.3 20.9753 175.069 20.9753C174.834 20.9753 174.643 20.8998 174.492 20.7488C174.341 20.5978 174.265 20.4069 174.265 20.1716V13.542H164.186V20.1716C164.186 20.4069 164.11 20.5978 163.959 20.7488C163.808 20.8998 163.617 20.9753 163.382 20.9753Z" fill="#101828"/>
<path d="M189.982 21.1797C188.868 21.1797 187.824 20.9665 186.852 20.5403C185.88 20.114 185.027 19.519 184.29 18.7552C183.553 17.9915 182.98 17.1123 182.567 16.1132C182.154 15.1141 181.945 14.0439 181.945 12.9027C181.945 11.7749 182.15 10.7092 182.554 9.71008C182.958 8.71098 183.531 7.83177 184.268 7.0769C185.005 6.31759 185.857 5.72257 186.83 5.29185C187.798 4.85669 188.85 4.64355 189.978 4.64355C190.968 4.64355 191.87 4.79008 192.682 5.07871C193.495 5.36734 194.281 5.82915 195.036 6.46413C195.16 6.56182 195.231 6.67283 195.253 6.80604C195.275 6.93925 195.258 7.05914 195.2 7.17903C195.147 7.29448 195.062 7.3833 194.951 7.43658C194.925 7.5476 194.854 7.62752 194.747 7.68525C194.636 7.73853 194.507 7.76073 194.365 7.74741C194.219 7.73409 194.077 7.67193 193.943 7.56092C193.406 7.09467 192.82 6.74388 192.189 6.51741C191.554 6.29095 190.817 6.17549 189.978 6.17549C189.081 6.17549 188.246 6.35312 187.469 6.71279C186.692 7.07247 186.004 7.56091 185.413 8.17813C184.823 8.79979 184.356 9.51469 184.019 10.3273C183.682 11.1399 183.513 12.0013 183.513 12.9072C183.513 13.8441 183.682 14.7189 184.019 15.5315C184.356 16.3441 184.823 17.059 185.413 17.6806C186.004 18.3023 186.692 18.7863 187.469 19.1371C188.246 19.4879 189.081 19.6655 189.978 19.6655C190.737 19.6655 191.452 19.5412 192.127 19.2925C192.802 19.0438 193.442 18.6886 194.05 18.2179C194.214 18.0803 194.392 18.027 194.578 18.0536C194.765 18.0803 194.925 18.1646 195.062 18.3023C195.2 18.4399 195.271 18.6176 195.271 18.8396C195.271 18.9506 195.253 19.0483 195.218 19.1371C195.182 19.2259 195.124 19.3191 195.04 19.4168C194.339 20.0651 193.553 20.5225 192.687 20.7889C191.821 21.0465 190.919 21.1797 189.982 21.1797Z" fill="#101828"/>
<path d="M48.6055 32.7904C48.6055 30.8597 49.8822 29.4497 51.6059 29.4497C52.4784 29.4497 53.2402 29.7936 53.7551 30.4667L53.2317 31.0562C52.7933 30.5256 52.2613 30.28 51.6399 30.28C50.3632 30.28 49.4184 31.3411 49.4184 32.7904C49.4184 34.2347 50.3632 35.3008 51.6399 35.3008C52.2613 35.3008 52.7976 35.0503 53.2317 34.5148L53.7551 35.1043C53.2359 35.7773 52.4784 36.1311 51.5974 36.1311C49.8822 36.1311 48.6055 34.7211 48.6055 32.7904Z" fill="#101828"/>
<path d="M54.168 33.5813C54.168 32.1075 55.1128 31.061 56.3981 31.061C57.6834 31.061 58.6197 32.1075 58.6197 33.5813C58.6197 35.0551 57.6834 36.1114 56.3981 36.1114C55.1128 36.1114 54.168 35.06 54.168 33.5813ZM57.8366 33.5813C57.8366 32.525 57.2237 31.8471 56.3981 31.8471C55.5724 31.8471 54.9511 32.53 54.9511 33.5813C54.9511 34.6375 55.5724 35.3253 56.3981 35.3253C57.2237 35.3253 57.8366 34.6375 57.8366 33.5813Z" fill="#101828"/>
<path d="M65.7087 33.5813C65.7087 35.0551 64.7851 36.1114 63.5339 36.1114C62.3933 36.1114 61.5293 35.232 61.3846 33.9645H60.5207V36.0573H59.7461V31.1102H60.5207V33.1342H61.3931C61.5549 31.8913 62.4103 31.061 63.5339 31.061C64.7894 31.0659 65.7087 32.0976 65.7087 33.5813ZM64.9426 33.5813C64.9426 32.525 64.3297 31.8471 63.5339 31.8471C62.7338 31.8471 62.1252 32.53 62.1252 33.5813C62.1252 34.6474 62.7338 35.3253 63.5339 35.3253C64.3297 35.3302 64.9426 34.6474 64.9426 33.5813Z" fill="#101828"/>
<path d="M69.9949 34.618C69.9949 35.5121 69.1394 36.1213 67.9988 36.1213C67.3605 36.1213 66.7306 35.9149 66.2539 35.5612L66.488 34.8783C66.9008 35.1878 67.4668 35.3549 67.9903 35.3549C68.7181 35.3549 69.1948 35.0454 69.1948 34.5443C69.1948 34.0874 68.8245 33.827 68.1904 33.827H67.4073V33.1834H68.135C68.7096 33.1834 69.0713 32.9427 69.0713 32.5202C69.0713 32.0732 68.633 31.8128 67.9818 31.8128C67.5435 31.8128 67.1008 31.9454 66.6327 32.196L66.4241 31.5033C66.9817 31.179 67.5137 31.0464 68.0669 31.0464C69.1096 31.0464 69.88 31.5868 69.88 32.3925C69.88 32.8887 69.5735 33.2866 69.1054 33.4831C69.6714 33.6501 69.9949 34.053 69.9949 34.618Z" fill="#101828"/>
<path d="M77.0324 31.1104V36.0575H76.2578V31.8964H74.415L74.3682 32.9969C74.2958 34.7409 74.0916 36.1312 73.1212 36.1312C72.9765 36.1312 72.8233 36.1017 72.6445 36.0477L72.6913 35.2911C72.7637 35.3108 72.8275 35.3206 72.8871 35.3206C73.5808 35.3206 73.6149 34.1071 73.6702 32.9428L73.7426 31.1153H77.0324V31.1104Z" fill="#101828"/>
<path d="M84.5016 33.5813C84.5016 35.0551 83.5781 36.1114 82.3268 36.1114C81.1862 36.1114 80.3223 35.232 80.1776 33.9645H79.3136V36.0573H78.5391V31.1102H79.3136V33.1342H80.1861C80.3478 31.8913 81.2033 31.061 82.3268 31.061C83.5823 31.0659 84.5016 32.0976 84.5016 33.5813ZM83.7355 33.5813C83.7355 32.525 83.1227 31.8471 82.3268 31.8471C81.5267 31.8471 80.9181 32.53 80.9181 33.5813C80.9181 34.6474 81.5267 35.3253 82.3268 35.3253C83.1184 35.3302 83.7355 34.6474 83.7355 33.5813Z" fill="#101828"/>
<path d="M89.9421 35.2715V37.2022H89.2143V36.0526H85.6308V37.2022H84.8945V35.2715H85.1201C85.7329 35.2322 85.8393 34.0285 85.8947 32.7807L85.9585 31.1104H89.2824V35.2715H89.9421ZM86.1075 35.2715H88.5078V31.8915H86.648L86.6097 32.8446C86.5756 33.8713 86.4948 34.8834 86.1075 35.2715Z" fill="#101828"/>
<path d="M94.806 33.881H91.3289C91.4268 34.7505 92.0311 35.3302 92.8823 35.3302C93.3845 35.3302 93.8016 35.1337 94.1208 34.7309L94.5507 35.3106C94.1634 35.8313 93.5718 36.1114 92.861 36.1114C91.4779 36.1114 90.5586 35.0551 90.5586 33.5813C90.5586 32.1173 91.4736 31.061 92.7078 31.061C93.9463 31.061 94.8273 32.0878 94.8273 33.6108C94.823 33.6845 94.8145 33.7974 94.806 33.881ZM91.3332 33.2374H94.0825C94.0016 32.4071 93.4611 31.8176 92.7078 31.8176C91.9631 31.8176 91.414 32.3973 91.3332 33.2374Z" fill="#101828"/>
<path d="M96.0273 31.1104H96.8019V34.7114L99.4278 31.1104H100.13V36.0576H99.3555V32.4565L96.7381 36.0576H96.0273V31.1104ZM96.7636 29.1797H97.2871C97.2956 29.6464 97.585 29.9461 98.0234 29.9461C98.466 29.9461 98.7597 29.6464 98.7682 29.1797H99.3087C99.2917 30.0198 98.815 30.4668 98.0319 30.4668C97.2488 30.4668 96.7721 30.0198 96.7636 29.1797Z" fill="#101828"/>
<path d="M103.816 31.1104H104.591V34.7114L107.217 31.1104H107.919V36.0575H107.145V32.4564L104.527 36.0575H103.816V31.1104Z" fill="#101828"/>
<path d="M114.794 31.8964H113.228V36.0575H112.453V31.8964H110.883V31.1104H114.794V31.8964Z" fill="#101828"/>
<path d="M119.259 33.881H115.782C115.88 34.7505 116.484 35.3302 117.335 35.3302C117.838 35.3302 118.255 35.1337 118.574 34.7309L119.004 35.3106C118.616 35.8313 118.025 36.1114 117.314 36.1114C115.931 36.1114 115.012 35.0551 115.012 33.5813C115.012 32.1173 115.927 31.061 117.161 31.061C118.399 31.061 119.28 32.0878 119.28 33.6108C119.276 33.6845 119.268 33.7974 119.259 33.881ZM115.782 33.2374H118.531C118.451 32.4071 117.91 31.8176 117.157 31.8176C116.412 31.8176 115.863 32.3973 115.782 33.2374Z" fill="#101828"/>
<path d="M123.034 36.0575L121.795 34.1612L120.54 36.0575H119.676L121.365 33.5274L119.757 31.1104H120.621L121.799 32.8937L122.97 31.1104H123.821L122.204 33.5274L123.91 36.0575H123.034Z" fill="#101828"/>
<path d="M124.73 31.1104H125.505V33.213H127.948V31.1104H128.723V36.0575H127.948V33.9843H125.505V36.0575H124.73V31.1104Z" fill="#101828"/>
<path d="M129.844 33.5813C129.844 32.1075 130.789 31.061 132.074 31.061C133.359 31.061 134.295 32.1075 134.295 33.5813C134.295 35.0551 133.359 36.1114 132.074 36.1114C130.789 36.1114 129.844 35.06 129.844 33.5813ZM133.512 33.5813C133.512 32.525 132.9 31.8471 132.074 31.8471C131.248 31.8471 130.627 32.53 130.627 33.5813C130.627 34.6375 131.248 35.3253 132.074 35.3253C132.9 35.3253 133.512 34.6375 133.512 33.5813Z" fill="#101828"/>
<path d="M139.068 31.1104V36.0575H138.293V31.8964H136.45L136.403 32.9969C136.331 34.7409 136.127 36.1312 135.156 36.1312C135.012 36.1312 134.858 36.1017 134.68 36.0477L134.727 35.2911C134.799 35.3108 134.863 35.3206 134.922 35.3206C135.616 35.3206 135.65 34.1071 135.705 32.9428L135.778 31.1153H139.068V31.1104Z" fill="#101828"/>
<path d="M140.172 33.5813C140.172 32.1075 141.117 31.061 142.402 31.061C143.687 31.061 144.624 32.1075 144.624 33.5813C144.624 35.0551 143.687 36.1114 142.402 36.1114C141.117 36.1114 140.172 35.06 140.172 33.5813ZM143.845 33.5813C143.845 32.525 143.232 31.8471 142.406 31.8471C141.581 31.8471 140.959 32.53 140.959 33.5813C140.959 34.6375 141.581 35.3253 142.406 35.3253C143.232 35.3253 143.845 34.6375 143.845 33.5813Z" fill="#101828"/>
<path d="M148.908 31.8964H146.528V36.0575H145.754V31.1104H148.908V31.8964Z" fill="#101828"/>
<path d="M149.695 31.1104H150.47V34.7114L153.096 31.1104H153.798V36.0575H153.023V32.4564L150.406 36.0575H149.695V31.1104Z" fill="#101828"/>
<path d="M155.312 31.1104H156.087V34.7114L158.713 31.1104H159.415V36.0576H158.641V32.4565L156.023 36.0576H155.312V31.1104ZM156.049 29.1797H156.572C156.581 29.6464 156.87 29.9461 157.309 29.9461C157.751 29.9461 158.045 29.6464 158.053 29.1797H158.594C158.577 30.0198 158.1 30.4668 157.317 30.4668C156.534 30.4668 156.053 30.0198 156.049 29.1797Z" fill="#101828"/>
<defs>
<linearGradient id="paint0_linear_3001_10689" x1="30.5321" y1="1.05771" x2="29.9082" y2="39.9489" gradientUnits="userSpaceOnUse">
<stop stop-color="#B7DABB"/>
<stop offset="0.6268" stop-color="#00B5D8"/>
<stop offset="1" stop-color="#009FE3"/>
</linearGradient>
<linearGradient id="paint1_linear_3001_10689" x1="13.7376" y1="0.788486" x2="13.1137" y2="39.6797" gradientUnits="userSpaceOnUse">
<stop stop-color="#B7DABB"/>
<stop offset="0.6268" stop-color="#00B5D8"/>
<stop offset="1" stop-color="#009FE3"/>
</linearGradient>
<linearGradient id="paint2_linear_3001_10689" x1="16.9583" y1="0.839795" x2="16.3343" y2="39.731" gradientUnits="userSpaceOnUse">
<stop stop-color="#B7DABB"/>
<stop offset="0.6268" stop-color="#00B5D8"/>
<stop offset="1" stop-color="#009FE3"/>
</linearGradient>
<linearGradient id="paint3_linear_3001_10689" x1="5.63383" y1="0.65831" x2="5.00991" y2="39.5495" gradientUnits="userSpaceOnUse">
<stop stop-color="#B7DABB"/>
<stop offset="0.6268" stop-color="#00B5D8"/>
<stop offset="1" stop-color="#009FE3"/>
</linearGradient>
<linearGradient id="paint4_linear_3001_10689" x1="19.1112" y1="0.874555" x2="18.4873" y2="39.7658" gradientUnits="userSpaceOnUse">
<stop stop-color="#B7DABB"/>
<stop offset="0.6268" stop-color="#00B5D8"/>
<stop offset="1" stop-color="#009FE3"/>
</linearGradient>
</defs>
</svg>
