<svg width="40" height="40" viewBox="0 0 40 40" fill="none" xmlns="http://www.w3.org/2000/svg">
<g clip-path="url(#clip0_1_3264)">
<path d="M31.6667 5H8.33333C6.5 5 5 6.5 5 8.33333V20C5 21.8333 6.5 23.3333 8.33333 23.3333H31.6667C33.5 23.3333 35 21.8333 35 20V8.33333C35 6.5 33.5 5 31.6667 5ZM8.33333 16.6667H13.55C13.9 17.9667 14.6667 19.1167 15.6667 20H8.33333V16.6667ZM31.6667 20H24.3333C25.3333 19.1167 26.1 17.9667 26.45 16.6667H31.6667V20ZM31.6667 13.3333H23.3333V15C23.3333 16.7833 21.7833 18.3333 20 18.3333C18.2167 18.3333 16.6667 16.7833 16.6667 15V13.3333H8.33333V8.33333H31.6667V13.3333ZM28.3333 25H23.3333V26.6667C23.3333 27.45 23.0167 28.1667 22.5333 28.75C21.9167 29.5 21 30 20 30C19 30 18.0833 29.5 17.4667 28.75C16.9833 28.1667 16.6667 27.45 16.6667 26.6667V25H5V31.6667C5 33.5 6.5 35 8.33333 35H31.6667C33.5 35 35 33.5 35 31.6667V25H28.3333ZM8.33333 28.3333H13.55C13.5833 28.4833 13.65 28.6167 13.7 28.75C14.1 29.8833 14.7833 30.8833 15.6667 31.6667H8.33333V28.3333ZM31.6667 31.6667H24.3333C25.2333 30.8833 25.9167 29.8833 26.3 28.75C26.35 28.6167 26.4167 28.4833 26.45 28.3333H31.6667V31.6667Z" fill="#22B5E3"/>
</g>
<defs>
<clipPath id="clip0_1_3264">
<rect width="40" height="40" fill="white"/>
</clipPath>
</defs>
</svg>
