<svg width="30" height="33" viewBox="0 0 30 33" fill="none" xmlns="http://www.w3.org/2000/svg">
<path d="M24.0383 32.5C22.7852 32.4895 21.6384 32.1584 20.652 31.3759C19.3466 30.3406 18.8481 28.9847 19.0433 27.329C19.235 25.6976 19.357 24.0576 19.5104 22.4211C19.676 20.6591 19.845 18.8988 20.0106 17.1368C20.1448 15.7111 20.272 14.2872 20.4062 12.8615C20.5561 11.2564 20.7112 9.65121 20.8611 8.04779C20.9936 6.63085 21.1243 5.21391 21.255 3.79697C21.2864 3.46757 21.2829 3.1312 21.3596 2.814C21.4206 2.56303 21.5443 2.30858 21.7064 2.10815C22.1578 1.54869 22.7765 1.21232 23.4353 0.959611C24.4566 0.567469 25.5058 0.356584 26.5951 0.61104C26.8408 0.668554 27.097 0.780098 27.2853 0.942184C27.4439 1.07638 27.5868 1.31167 27.6042 1.51384C27.7262 2.82795 27.8099 4.14554 27.9092 5.46314C28.0103 6.80339 28.1184 8.1419 28.2194 9.48216C28.3223 10.8224 28.4199 12.1627 28.5227 13.5029C28.6586 15.2737 28.7981 17.0444 28.934 18.8169C29.0368 20.1658 29.1327 21.5148 29.2355 22.8638C29.3523 24.4079 29.49 25.9504 29.5893 27.4963C29.6434 28.3503 29.4133 29.152 28.9584 29.8753C28.0225 31.3637 26.6352 32.1567 24.9289 32.432C24.6361 32.4739 24.3346 32.4756 24.0383 32.5Z" fill="#22B5E3"/>
<path d="M9.31815 32.4948C8.37178 32.5018 7.52127 32.2421 6.85202 31.5554C6.05553 30.7398 5.8307 29.7307 6.0747 28.6501C6.30302 27.641 6.63242 26.6528 6.92347 25.6576C7.2215 24.6398 7.55264 23.6307 7.82453 22.6059C8.19401 21.2116 9.05498 20.2182 10.2645 19.5019C11.2858 18.8971 12.3838 18.6043 13.5829 18.7699C14.8622 18.9459 16.1031 19.9167 15.7702 21.8042C15.4129 23.8241 15.1131 25.8546 14.782 27.878C14.5851 29.0736 13.982 30.0531 13.1089 30.8705C12.044 31.8709 10.7978 32.46 9.31815 32.4948Z" fill="#22B5E3"/>
<path d="M15.4756 9.08479C15.9166 9.07956 16.3401 9.13882 16.741 9.32879C17.3632 9.62333 17.6298 10.0991 17.527 10.7788C17.3231 12.1069 17.1122 13.4349 16.8926 14.7613C16.7985 15.3381 16.5092 15.8279 16.1135 16.2444C14.9441 17.4714 13.5149 18.104 11.8104 18.0099C11.4375 17.989 11.0505 17.8653 10.7107 17.7014C9.963 17.3407 9.63535 16.6017 9.86192 15.8035C10.2471 14.4353 10.6375 13.0655 11.0854 11.7165C11.2161 11.3244 11.495 10.9462 11.793 10.6499C12.8039 9.6425 14.0535 9.14753 15.4756 9.08479Z" fill="#22B5E3"/>
<path d="M2.47374 19.1428C2.24019 19.1114 2.00142 19.1027 1.7766 19.0452C0.983598 18.8396 0.59494 18.1912 0.783168 17.386C0.830225 17.1821 0.908655 16.9799 0.997541 16.7882C1.49948 15.6955 2.02931 14.6149 2.50685 13.5117C2.87459 12.6629 3.44799 12.0128 4.20787 11.5126C4.98693 10.9985 5.82872 10.6429 6.77509 10.5994C7.02258 10.5872 7.28226 10.6046 7.52103 10.6656C8.30357 10.866 8.61032 11.4534 8.3454 12.2185C8.03343 13.1248 7.70926 14.0275 7.39032 14.9321C7.32235 15.1255 7.24218 15.3138 7.18815 15.5107C6.75941 17.0566 5.68407 18.0152 4.29502 18.6775C3.72336 18.9511 3.11859 19.1167 2.47374 19.1428Z" fill="#22B5E3"/>
<path d="M13.8737 8.75014C13.6663 8.70134 13.2968 8.65429 12.9587 8.52358C12.4132 8.31269 12.2145 7.85955 12.3766 7.30009C12.638 6.39555 12.9029 5.48927 13.1817 4.58996C13.3578 4.02702 13.7883 3.66102 14.2536 3.34382C15.1163 2.75822 16.0714 2.40791 17.1171 2.37479C17.4761 2.36433 17.8543 2.43579 18.1977 2.54908C18.6212 2.6885 18.7711 2.99525 18.7031 3.44142C18.5637 4.36513 18.4208 5.28884 18.2604 6.21081C18.182 6.66395 17.8996 7.01252 17.5685 7.31055C16.5681 8.21683 15.3777 8.66649 13.8737 8.75014Z" fill="#22B5E3"/>
</svg>
