<svg width="40" height="69" viewBox="0 0 40 69" fill="none" xmlns="http://www.w3.org/2000/svg">
<mask id="path-1-inside-1_1522_37335" fill="white">
<path fill-rule="evenodd" clip-rule="evenodd" d="M37.457 29.2447C39.0766 26.4069 40 23.1339 40 19.649C40 8.79716 31.0457 0 20 0C8.9543 0 0 8.79716 0 19.649C0 30.4255 8.83043 39.1758 19.7703 39.2967L19.7699 69L28.6059 49.1225C32.0091 41.4667 37.3117 29.5707 37.457 29.2447Z"/>
</mask>
<path fill-rule="evenodd" clip-rule="evenodd" d="M37.457 29.2447C39.0766 26.4069 40 23.1339 40 19.649C40 8.79716 31.0457 0 20 0C8.9543 0 0 8.79716 0 19.649C0 30.4255 8.83043 39.1758 19.7703 39.2967L19.7699 69L28.6059 49.1225C32.0091 41.4667 37.3117 29.5707 37.457 29.2447Z" fill="#22B5E3"/>
<path d="M37.457 29.2447L36.5885 28.7491L36.5638 28.7922L36.5436 28.8376L37.457 29.2447ZM19.7703 39.2967L20.7703 39.2968L20.7703 38.3077L19.7814 38.2968L19.7703 39.2967ZM19.7699 69L18.7699 69L20.6837 69.4062L19.7699 69ZM28.6059 49.1225L29.5197 49.5287L29.5197 49.5287L28.6059 49.1225ZM39 19.649C39 22.9548 38.1245 26.0576 36.5885 28.7491L38.3255 29.7404C40.0286 26.7562 41 23.313 41 19.649H39ZM20 1C30.5102 1 39 9.36606 39 19.649H41C41 8.22826 31.5812 -1 20 -1V1ZM1 19.649C1 9.36606 9.48982 1 20 1V-1C8.41879 -1 -1 8.22826 -1 19.649H1ZM19.7814 38.2968C9.37231 38.1817 1 29.8606 1 19.649H-1C-1 30.9905 8.28855 40.1699 19.7592 40.2967L19.7814 38.2968ZM18.7703 39.2967L18.7699 69L20.7699 69L20.7703 39.2968L18.7703 39.2967ZM20.6837 69.4062L29.5197 49.5287L27.6921 48.7163L18.8561 68.5938L20.6837 69.4062ZM29.5197 49.5287C32.9226 41.8735 38.225 29.978 38.3703 29.6519L36.5436 28.8376C36.3983 29.1635 31.0955 41.06 27.6921 48.7163L29.5197 49.5287Z" fill="white" mask="url(#path-1-inside-1_1522_37335)"/>
<ellipse cx="20.0004" cy="19.649" rx="13.9535" ry="13.7086" fill="white"/>
<ellipse cx="20.0002" cy="19.6492" rx="6.97674" ry="6.8543" fill="#22B5E3"/>
</svg>
