<svg width="32" height="49" viewBox="0 0 32 49" fill="none" xmlns="http://www.w3.org/2000/svg">
<path d="M8.448 33.64C7.08267 33.64 6.08 33.2987 5.44 32.616C4.84267 31.8907 4.544 30.9733 4.544 29.864V28.968C4.544 27.2187 5.056 25.2987 6.08 23.208C7.104 21.0747 8.53333 19.2187 10.368 17.64H14.656C13.376 19.0053 12.3307 20.3067 11.52 21.544C10.752 22.7387 10.1973 24.0827 9.856 25.576C10.7093 25.7893 11.328 26.1947 11.712 26.792C12.1387 27.3893 12.352 28.1147 12.352 28.968V29.864C12.352 30.9733 12.032 31.8907 11.392 32.616C10.7947 33.2987 9.81333 33.64 8.448 33.64ZM21.376 33.64C20.0107 33.64 19.008 33.2987 18.368 32.616C17.7707 31.8907 17.472 30.9733 17.472 29.864V28.968C17.472 27.2187 17.984 25.2987 19.008 23.208C20.032 21.0747 21.4613 19.2187 23.296 17.64H27.584C26.304 19.0053 25.2587 20.3067 24.448 21.544C23.68 22.7387 23.1253 24.0827 22.784 25.576C23.6373 25.7893 24.256 26.1947 24.64 26.792C25.0667 27.3893 25.28 28.1147 25.28 28.968V29.864C25.28 30.9733 24.96 31.8907 24.32 32.616C23.7227 33.2987 22.7413 33.64 21.376 33.64Z" fill="#22B5E3"/>
</svg>
