<svg width="334" height="288" viewBox="0 0 334 288" fill="none" xmlns="http://www.w3.org/2000/svg">
<path d="M268.86 71.518C267.367 69.3441 264.376 65.8379 262.364 61.8237C259.119 55.3473 261.054 49.5294 267.17 45.7356C277.054 39.5964 286.983 33.4701 296.982 27.5239C303.255 23.8141 310.225 24.0312 317.11 24.9868C329.853 26.7812 341.494 31.5066 351.336 39.9014C354.708 42.792 357.577 46.5951 359.78 50.4926C362.501 55.2973 361.332 59.3636 357.015 62.8991C348.089 70.2294 339.132 77.5308 330.029 84.6711C325.559 88.1837 320.089 89.0388 314.591 89.0233C297.932 89.0311 283.316 83.2615 268.86 71.518Z" fill="url(#paint0_linear_1494_79155)"/>
<path d="M280.743 87.9131C284.821 91.5332 288.205 95.601 290.3 100.682C293.554 108.565 292.053 115.157 285.483 120.549C272.619 131.059 259.691 141.512 246.698 151.875C241.059 156.395 234.356 158.49 227.286 159.027C206.425 160.576 188.108 154.502 173.291 139.457C170.052 136.162 167.536 131.806 165.783 127.473C161.93 117.937 165.051 108.419 173.735 102.967C188.59 93.5963 203.507 84.2528 218.777 75.58C223.22 73.0631 228.904 71.9067 234.085 71.6627C251.677 70.8128 267.21 76.6589 280.743 87.9131Z" fill="url(#paint1_linear_1494_79155)"/>
<path d="M30.5354 251.869C21.8182 244.06 16.1866 234.598 15.7496 222.719C15.2166 208.596 21.5164 197.45 32.6978 189.548C43.1439 182.172 54.3418 175.83 65.2466 169.104C76.4027 162.228 87.7897 155.707 98.7644 148.55C113.692 138.808 129.797 136.839 146.797 140.318C161.15 143.255 173.622 149.698 183.223 161.195C193.47 173.455 196.785 192.701 178.108 207.281C158.11 222.875 138.552 239.043 118.765 254.887C107.061 264.238 93.4318 268.224 78.6729 268.473C60.6442 268.81 44.3633 263.858 30.5354 251.869Z" fill="url(#paint2_linear_1494_79155)"/>
<defs>
<linearGradient id="paint0_linear_1494_79155" x1="353.314" y1="9.70459" x2="89.8211" y2="290.341" gradientUnits="userSpaceOnUse">
<stop stop-color="#B7DABB"/>
<stop offset="0.6268" stop-color="#00B5D8"/>
<stop offset="1" stop-color="#009FE3"/>
</linearGradient>
<linearGradient id="paint1_linear_1494_79155" x1="337.756" y1="-4.90556" x2="74.2636" y2="275.731" gradientUnits="userSpaceOnUse">
<stop stop-color="#B7DABB"/>
<stop offset="0.6268" stop-color="#00B5D8"/>
<stop offset="1" stop-color="#009FE3"/>
</linearGradient>
<linearGradient id="paint2_linear_1494_79155" x1="314.551" y1="-26.6905" x2="51.0585" y2="253.946" gradientUnits="userSpaceOnUse">
<stop stop-color="#B7DABB"/>
<stop offset="0.6268" stop-color="#00B5D8"/>
<stop offset="1" stop-color="#009FE3"/>
</linearGradient>
</defs>
</svg>
